# Wavefront OBJ file automatically generated by Tiled2Unity

# Vertices (Count = 630)
v 0 -16 -0.06666667
v -16 -16 -0.06666667
v -16 0 -0.06666667
v 0 0 -0.06666667
v -32 -16 -0.06666667
v -32 0 -0.06666667
v -48 -16 -0.06666667
v -48 0 -0.06666667
v -64 -16 -0.06666667
v -64 0 -0.06666667
v -80 -16 -0.06666667
v -80 0 -0.06666667
v -96 -16 -0.06666667
v -96 0 -0.06666667
v -112 -16 -0.06666667
v -112 0 -0.06666667
v -128 -16 -0.06666667
v -128 0 -0.06666667
v -144 -16 -0.06666667
v -144 0 -0.06666667
v -160 -16 -0.06666667
v -160 0 -0.06666667
v -176 -16 -0.06666667
v -176 0 -0.06666667
v -192 -16 -0.06666667
v -192 0 -0.06666667
v -208 -16 -0.06666667
v -208 0 -0.06666667
v -224 -16 -0.06666667
v -224 0 -0.06666667
v -240 -16 -0.06666667
v -240 0 -0.06666667
v -256 -16 -0.06666667
v -256 0 -0.06666667
v -272 -16 -0.06666667
v -272 0 -0.06666667
v -288 -16 -0.06666667
v -288 0 -0.06666667
v -304 -16 -0.06666667
v -304 0 -0.06666667
v -320 -16 -0.06666667
v -320 0 -0.06666667
v 0 -32 -0.1333333
v -16 -32 -0.1333333
v -16 -16 -0.1333333
v 0 -16 -0.1333333
v -32 -32 -0.1333333
v -32 -16 -0.1333333
v -48 -32 -0.1333333
v -48 -16 -0.1333333
v -64 -32 -0.1333333
v -64 -16 -0.1333333
v -80 -32 -0.1333333
v -80 -16 -0.1333333
v -96 -32 -0.1333333
v -96 -16 -0.1333333
v -112 -32 -0.1333333
v -112 -16 -0.1333333
v -128 -32 -0.1333333
v -128 -16 -0.1333333
v -144 -32 -0.1333333
v -144 -16 -0.1333333
v -160 -32 -0.1333333
v -160 -16 -0.1333333
v -176 -32 -0.1333333
v -176 -16 -0.1333333
v -192 -32 -0.1333333
v -192 -16 -0.1333333
v -208 -32 -0.1333333
v -208 -16 -0.1333333
v -224 -32 -0.1333333
v -224 -16 -0.1333333
v -240 -32 -0.1333333
v -240 -16 -0.1333333
v -256 -32 -0.1333333
v -256 -16 -0.1333333
v -272 -32 -0.1333333
v -272 -16 -0.1333333
v -288 -32 -0.1333333
v -288 -16 -0.1333333
v -304 -32 -0.1333333
v -304 -16 -0.1333333
v -320 -32 -0.1333333
v -320 -16 -0.1333333
v 0 -48 -0.2
v -16 -48 -0.2
v -16 -32 -0.2
v 0 -32 -0.2
v -32 -48 -0.2
v -32 -32 -0.2
v -48 -48 -0.2
v -48 -32 -0.2
v -64 -48 -0.2
v -64 -32 -0.2
v -80 -48 -0.2
v -80 -32 -0.2
v -96 -48 -0.2
v -96 -32 -0.2
v -112 -48 -0.2
v -112 -32 -0.2
v -128 -48 -0.2
v -128 -32 -0.2
v -144 -48 -0.2
v -144 -32 -0.2
v -160 -48 -0.2
v -160 -32 -0.2
v -176 -48 -0.2
v -176 -32 -0.2
v -192 -48 -0.2
v -192 -32 -0.2
v -208 -48 -0.2
v -208 -32 -0.2
v -224 -48 -0.2
v -224 -32 -0.2
v -240 -48 -0.2
v -240 -32 -0.2
v -256 -48 -0.2
v -256 -32 -0.2
v -272 -48 -0.2
v -272 -32 -0.2
v -288 -48 -0.2
v -288 -32 -0.2
v -304 -48 -0.2
v -304 -32 -0.2
v -320 -48 -0.2
v -320 -32 -0.2
v 0 -64 -0.2666667
v -16 -64 -0.2666667
v -16 -48 -0.2666667
v 0 -48 -0.2666667
v -32 -64 -0.2666667
v -32 -48 -0.2666667
v -48 -64 -0.2666667
v -48 -48 -0.2666667
v -64 -64 -0.2666667
v -64 -48 -0.2666667
v -80 -64 -0.2666667
v -80 -48 -0.2666667
v -96 -64 -0.2666667
v -96 -48 -0.2666667
v -112 -64 -0.2666667
v -112 -48 -0.2666667
v -128 -64 -0.2666667
v -128 -48 -0.2666667
v -144 -64 -0.2666667
v -144 -48 -0.2666667
v -160 -64 -0.2666667
v -160 -48 -0.2666667
v -176 -64 -0.2666667
v -176 -48 -0.2666667
v -192 -64 -0.2666667
v -192 -48 -0.2666667
v -208 -64 -0.2666667
v -208 -48 -0.2666667
v -224 -64 -0.2666667
v -224 -48 -0.2666667
v -240 -64 -0.2666667
v -240 -48 -0.2666667
v -256 -64 -0.2666667
v -256 -48 -0.2666667
v -272 -64 -0.2666667
v -272 -48 -0.2666667
v -288 -64 -0.2666667
v -288 -48 -0.2666667
v -304 -64 -0.2666667
v -304 -48 -0.2666667
v -320 -64 -0.2666667
v -320 -48 -0.2666667
v 0 -80 -0.3333333
v -16 -80 -0.3333333
v -16 -64 -0.3333333
v 0 -64 -0.3333333
v -32 -80 -0.3333333
v -32 -64 -0.3333333
v -48 -80 -0.3333333
v -48 -64 -0.3333333
v -64 -80 -0.3333333
v -64 -64 -0.3333333
v -80 -80 -0.3333333
v -80 -64 -0.3333333
v -96 -80 -0.3333333
v -96 -64 -0.3333333
v -112 -80 -0.3333333
v -112 -64 -0.3333333
v -128 -80 -0.3333333
v -128 -64 -0.3333333
v -144 -80 -0.3333333
v -144 -64 -0.3333333
v -160 -80 -0.3333333
v -160 -64 -0.3333333
v -176 -80 -0.3333333
v -176 -64 -0.3333333
v -192 -80 -0.3333333
v -192 -64 -0.3333333
v -208 -80 -0.3333333
v -208 -64 -0.3333333
v -224 -80 -0.3333333
v -224 -64 -0.3333333
v -240 -80 -0.3333333
v -240 -64 -0.3333333
v -256 -80 -0.3333333
v -256 -64 -0.3333333
v -272 -80 -0.3333333
v -272 -64 -0.3333333
v -288 -80 -0.3333333
v -288 -64 -0.3333333
v -304 -80 -0.3333333
v -304 -64 -0.3333333
v -320 -80 -0.3333333
v -320 -64 -0.3333333
v 0 -96 -0.4
v -16 -96 -0.4
v -16 -80 -0.4
v 0 -80 -0.4
v -32 -96 -0.4
v -32 -80 -0.4
v -48 -96 -0.4
v -48 -80 -0.4
v -64 -96 -0.4
v -64 -80 -0.4
v -80 -96 -0.4
v -80 -80 -0.4
v -96 -96 -0.4
v -96 -80 -0.4
v -112 -96 -0.4
v -112 -80 -0.4
v -128 -96 -0.4
v -128 -80 -0.4
v -144 -96 -0.4
v -144 -80 -0.4
v -160 -96 -0.4
v -160 -80 -0.4
v -176 -96 -0.4
v -176 -80 -0.4
v -192 -96 -0.4
v -192 -80 -0.4
v -208 -96 -0.4
v -208 -80 -0.4
v -224 -96 -0.4
v -224 -80 -0.4
v -240 -96 -0.4
v -240 -80 -0.4
v -256 -96 -0.4
v -256 -80 -0.4
v -272 -96 -0.4
v -272 -80 -0.4
v -288 -96 -0.4
v -288 -80 -0.4
v -304 -96 -0.4
v -304 -80 -0.4
v -320 -96 -0.4
v -320 -80 -0.4
v 0 -112 -0.4666667
v -16 -112 -0.4666667
v -16 -96 -0.4666667
v 0 -96 -0.4666667
v -32 -112 -0.4666667
v -32 -96 -0.4666667
v -48 -112 -0.4666667
v -48 -96 -0.4666667
v -64 -112 -0.4666667
v -64 -96 -0.4666667
v -80 -112 -0.4666667
v -80 -96 -0.4666667
v -96 -112 -0.4666667
v -96 -96 -0.4666667
v -112 -112 -0.4666667
v -112 -96 -0.4666667
v -128 -112 -0.4666667
v -128 -96 -0.4666667
v -144 -112 -0.4666667
v -144 -96 -0.4666667
v -160 -112 -0.4666667
v -160 -96 -0.4666667
v -176 -112 -0.4666667
v -176 -96 -0.4666667
v -192 -112 -0.4666667
v -192 -96 -0.4666667
v -208 -112 -0.4666667
v -208 -96 -0.4666667
v -224 -112 -0.4666667
v -224 -96 -0.4666667
v -240 -112 -0.4666667
v -240 -96 -0.4666667
v -256 -112 -0.4666667
v -256 -96 -0.4666667
v -272 -112 -0.4666667
v -272 -96 -0.4666667
v -288 -112 -0.4666667
v -288 -96 -0.4666667
v -304 -112 -0.4666667
v -304 -96 -0.4666667
v -320 -112 -0.4666667
v -320 -96 -0.4666667
v 0 -128 -0.5333334
v -16 -128 -0.5333334
v -16 -112 -0.5333334
v 0 -112 -0.5333334
v -32 -128 -0.5333334
v -32 -112 -0.5333334
v -48 -128 -0.5333334
v -48 -112 -0.5333334
v -64 -128 -0.5333334
v -64 -112 -0.5333334
v -80 -128 -0.5333334
v -80 -112 -0.5333334
v -96 -128 -0.5333334
v -96 -112 -0.5333334
v -112 -128 -0.5333334
v -112 -112 -0.5333334
v -128 -128 -0.5333334
v -128 -112 -0.5333334
v -144 -128 -0.5333334
v -144 -112 -0.5333334
v -160 -128 -0.5333334
v -160 -112 -0.5333334
v -176 -128 -0.5333334
v -176 -112 -0.5333334
v -192 -128 -0.5333334
v -192 -112 -0.5333334
v -208 -128 -0.5333334
v -208 -112 -0.5333334
v -224 -128 -0.5333334
v -224 -112 -0.5333334
v -240 -128 -0.5333334
v -240 -112 -0.5333334
v -256 -128 -0.5333334
v -256 -112 -0.5333334
v -272 -128 -0.5333334
v -272 -112 -0.5333334
v -288 -128 -0.5333334
v -288 -112 -0.5333334
v -304 -128 -0.5333334
v -304 -112 -0.5333334
v -320 -128 -0.5333334
v -320 -112 -0.5333334
v 0 -144 -0.6
v -16 -144 -0.6
v -16 -128 -0.6
v 0 -128 -0.6
v -32 -144 -0.6
v -32 -128 -0.6
v -48 -144 -0.6
v -48 -128 -0.6
v -64 -144 -0.6
v -64 -128 -0.6
v -80 -144 -0.6
v -80 -128 -0.6
v -96 -144 -0.6
v -96 -128 -0.6
v -112 -144 -0.6
v -112 -128 -0.6
v -128 -144 -0.6
v -128 -128 -0.6
v -144 -144 -0.6
v -144 -128 -0.6
v -160 -144 -0.6
v -160 -128 -0.6
v -176 -144 -0.6
v -176 -128 -0.6
v -192 -144 -0.6
v -192 -128 -0.6
v -208 -144 -0.6
v -208 -128 -0.6
v -224 -144 -0.6
v -224 -128 -0.6
v -240 -144 -0.6
v -240 -128 -0.6
v -256 -144 -0.6
v -256 -128 -0.6
v -272 -144 -0.6
v -272 -128 -0.6
v -288 -144 -0.6
v -288 -128 -0.6
v -304 -144 -0.6
v -304 -128 -0.6
v -320 -144 -0.6
v -320 -128 -0.6
v 0 -160 -0.6666667
v -16 -160 -0.6666667
v -16 -144 -0.6666667
v 0 -144 -0.6666667
v -32 -160 -0.6666667
v -32 -144 -0.6666667
v -48 -160 -0.6666667
v -48 -144 -0.6666667
v -64 -160 -0.6666667
v -64 -144 -0.6666667
v -80 -160 -0.6666667
v -80 -144 -0.6666667
v -96 -160 -0.6666667
v -96 -144 -0.6666667
v -112 -160 -0.6666667
v -112 -144 -0.6666667
v -128 -160 -0.6666667
v -128 -144 -0.6666667
v -144 -160 -0.6666667
v -144 -144 -0.6666667
v -160 -160 -0.6666667
v -160 -144 -0.6666667
v -176 -160 -0.6666667
v -176 -144 -0.6666667
v -192 -160 -0.6666667
v -192 -144 -0.6666667
v -208 -160 -0.6666667
v -208 -144 -0.6666667
v -224 -160 -0.6666667
v -224 -144 -0.6666667
v -240 -160 -0.6666667
v -240 -144 -0.6666667
v -256 -160 -0.6666667
v -256 -144 -0.6666667
v -272 -160 -0.6666667
v -272 -144 -0.6666667
v -288 -160 -0.6666667
v -288 -144 -0.6666667
v -304 -160 -0.6666667
v -304 -144 -0.6666667
v -320 -160 -0.6666667
v -320 -144 -0.6666667
v 0 -176 -0.7333333
v -16 -176 -0.7333333
v -16 -160 -0.7333333
v 0 -160 -0.7333333
v -32 -176 -0.7333333
v -32 -160 -0.7333333
v -48 -176 -0.7333333
v -48 -160 -0.7333333
v -64 -176 -0.7333333
v -64 -160 -0.7333333
v -80 -176 -0.7333333
v -80 -160 -0.7333333
v -96 -176 -0.7333333
v -96 -160 -0.7333333
v -112 -176 -0.7333333
v -112 -160 -0.7333333
v -128 -176 -0.7333333
v -128 -160 -0.7333333
v -144 -176 -0.7333333
v -144 -160 -0.7333333
v -160 -176 -0.7333333
v -160 -160 -0.7333333
v -176 -176 -0.7333333
v -176 -160 -0.7333333
v -192 -176 -0.7333333
v -192 -160 -0.7333333
v -208 -176 -0.7333333
v -208 -160 -0.7333333
v -224 -176 -0.7333333
v -224 -160 -0.7333333
v -240 -176 -0.7333333
v -240 -160 -0.7333333
v -256 -176 -0.7333333
v -256 -160 -0.7333333
v -272 -176 -0.7333333
v -272 -160 -0.7333333
v -288 -176 -0.7333333
v -288 -160 -0.7333333
v -304 -176 -0.7333333
v -304 -160 -0.7333333
v -320 -176 -0.7333333
v -320 -160 -0.7333333
v 0 -192 -0.8
v -16 -192 -0.8
v -16 -176 -0.8
v 0 -176 -0.8
v -32 -192 -0.8
v -32 -176 -0.8
v -48 -192 -0.8
v -48 -176 -0.8
v -64 -192 -0.8
v -64 -176 -0.8
v -80 -192 -0.8
v -80 -176 -0.8
v -96 -192 -0.8
v -96 -176 -0.8
v -112 -192 -0.8
v -112 -176 -0.8
v -128 -192 -0.8
v -128 -176 -0.8
v -144 -192 -0.8
v -144 -176 -0.8
v -160 -192 -0.8
v -160 -176 -0.8
v -176 -192 -0.8
v -176 -176 -0.8
v -192 -192 -0.8
v -192 -176 -0.8
v -208 -192 -0.8
v -208 -176 -0.8
v -224 -192 -0.8
v -224 -176 -0.8
v -240 -192 -0.8
v -240 -176 -0.8
v -256 -192 -0.8
v -256 -176 -0.8
v -272 -192 -0.8
v -272 -176 -0.8
v -288 -192 -0.8
v -288 -176 -0.8
v -304 -192 -0.8
v -304 -176 -0.8
v -320 -192 -0.8
v -320 -176 -0.8
v 0 -208 -0.8666667
v -16 -208 -0.8666667
v -16 -192 -0.8666667
v 0 -192 -0.8666667
v -32 -208 -0.8666667
v -32 -192 -0.8666667
v -48 -208 -0.8666667
v -48 -192 -0.8666667
v -64 -208 -0.8666667
v -64 -192 -0.8666667
v -80 -208 -0.8666667
v -80 -192 -0.8666667
v -96 -208 -0.8666667
v -96 -192 -0.8666667
v -112 -208 -0.8666667
v -112 -192 -0.8666667
v -128 -208 -0.8666667
v -128 -192 -0.8666667
v -144 -208 -0.8666667
v -144 -192 -0.8666667
v -160 -208 -0.8666667
v -160 -192 -0.8666667
v -176 -208 -0.8666667
v -176 -192 -0.8666667
v -192 -208 -0.8666667
v -192 -192 -0.8666667
v -208 -208 -0.8666667
v -208 -192 -0.8666667
v -224 -208 -0.8666667
v -224 -192 -0.8666667
v -240 -208 -0.8666667
v -240 -192 -0.8666667
v -256 -208 -0.8666667
v -256 -192 -0.8666667
v -272 -208 -0.8666667
v -272 -192 -0.8666667
v -288 -208 -0.8666667
v -288 -192 -0.8666667
v -304 -208 -0.8666667
v -304 -192 -0.8666667
v -320 -208 -0.8666667
v -320 -192 -0.8666667
v 0 -224 -0.9333333
v -16 -224 -0.9333333
v -16 -208 -0.9333333
v 0 -208 -0.9333333
v -32 -224 -0.9333333
v -32 -208 -0.9333333
v -48 -224 -0.9333333
v -48 -208 -0.9333333
v -64 -224 -0.9333333
v -64 -208 -0.9333333
v -80 -224 -0.9333333
v -80 -208 -0.9333333
v -96 -224 -0.9333333
v -96 -208 -0.9333333
v -112 -224 -0.9333333
v -112 -208 -0.9333333
v -128 -224 -0.9333333
v -128 -208 -0.9333333
v -144 -224 -0.9333333
v -144 -208 -0.9333333
v -160 -224 -0.9333333
v -160 -208 -0.9333333
v -176 -224 -0.9333333
v -176 -208 -0.9333333
v -192 -224 -0.9333333
v -192 -208 -0.9333333
v -208 -224 -0.9333333
v -208 -208 -0.9333333
v -224 -224 -0.9333333
v -224 -208 -0.9333333
v -240 -224 -0.9333333
v -240 -208 -0.9333333
v -256 -224 -0.9333333
v -256 -208 -0.9333333
v -272 -224 -0.9333333
v -272 -208 -0.9333333
v -288 -224 -0.9333333
v -288 -208 -0.9333333
v -304 -224 -0.9333333
v -304 -208 -0.9333333
v -320 -224 -0.9333333
v -320 -208 -0.9333333
v 0 -240 -1
v -16 -240 -1
v -16 -224 -1
v 0 -224 -1
v -32 -240 -1
v -32 -224 -1
v -48 -240 -1
v -48 -224 -1
v -64 -240 -1
v -64 -224 -1
v -80 -240 -1
v -80 -224 -1
v -96 -240 -1
v -96 -224 -1
v -112 -240 -1
v -112 -224 -1
v -128 -240 -1
v -128 -224 -1
v -144 -240 -1
v -144 -224 -1
v -160 -240 -1
v -160 -224 -1
v -176 -240 -1
v -176 -224 -1
v -192 -240 -1
v -192 -224 -1
v -208 -240 -1
v -208 -224 -1
v -224 -240 -1
v -224 -224 -1
v -240 -240 -1
v -240 -224 -1
v -256 -240 -1
v -256 -224 -1
v -272 -240 -1
v -272 -224 -1
v -288 -240 -1
v -288 -224 -1
v -304 -240 -1
v -304 -224 -1
v -320 -240 -1
v -320 -224 -1

# Texture cooridinates (Count = 20)
vt 0.8572649 0.8401221
vt 0.9998779 0.8401221
vt 0.9998779 0.8798779
vt 0.8572649 0.8798779
vt 0.7144078 0.8401221
vt 0.8570208 0.8401221
vt 0.8570208 0.8798779
vt 0.7144078 0.8798779
vt 0.7144078 0.8001221
vt 0.8570208 0.8001221
vt 0.8570208 0.839878
vt 0.7144078 0.839878
vt 0.0001220703 0.960122
vt 0.1427351 0.960122
vt 0.1427351 0.9998779
vt 0.0001220703 0.9998779
vt 0.7144078 0.6001221
vt 0.8570208 0.6001221
vt 0.8570208 0.6398779
vt 0.7144078 0.6398779

# Normal
vn 0 0 -1

# Groups (Count = 3)

g mesh_0001
f 1/1/1 2/2/1 3/3/1 4/4/1
f 2/1/1 5/2/1 6/3/1 3/4/1
f 5/1/1 7/2/1 8/3/1 6/4/1
f 7/1/1 9/2/1 10/3/1 8/4/1
f 9/1/1 11/2/1 12/3/1 10/4/1
f 11/1/1 13/2/1 14/3/1 12/4/1
f 13/1/1 15/2/1 16/3/1 14/4/1
f 15/1/1 17/2/1 18/3/1 16/4/1
f 17/1/1 19/2/1 20/3/1 18/4/1
f 19/1/1 21/2/1 22/3/1 20/4/1
f 21/1/1 23/2/1 24/3/1 22/4/1
f 23/1/1 25/2/1 26/3/1 24/4/1
f 25/1/1 27/2/1 28/3/1 26/4/1
f 27/1/1 29/2/1 30/3/1 28/4/1
f 29/1/1 31/2/1 32/3/1 30/4/1
f 31/1/1 33/2/1 34/3/1 32/4/1
f 33/1/1 35/2/1 36/3/1 34/4/1
f 35/1/1 37/2/1 38/3/1 36/4/1
f 37/1/1 39/2/1 40/3/1 38/4/1
f 39/1/1 41/2/1 42/3/1 40/4/1
f 43/1/1 44/2/1 45/3/1 46/4/1
f 44/1/1 47/2/1 48/3/1 45/4/1
f 47/1/1 49/2/1 50/3/1 48/4/1
f 49/1/1 51/2/1 52/3/1 50/4/1
f 51/1/1 53/2/1 54/3/1 52/4/1
f 53/1/1 55/2/1 56/3/1 54/4/1
f 55/1/1 57/2/1 58/3/1 56/4/1
f 57/1/1 59/2/1 60/3/1 58/4/1
f 59/1/1 61/2/1 62/3/1 60/4/1
f 61/1/1 63/2/1 64/3/1 62/4/1
f 63/1/1 65/2/1 66/3/1 64/4/1
f 65/1/1 67/2/1 68/3/1 66/4/1
f 67/1/1 69/2/1 70/3/1 68/4/1
f 69/1/1 71/2/1 72/3/1 70/4/1
f 71/1/1 73/2/1 74/3/1 72/4/1
f 73/1/1 75/2/1 76/3/1 74/4/1
f 75/1/1 77/2/1 78/3/1 76/4/1
f 77/1/1 79/2/1 80/3/1 78/4/1
f 79/1/1 81/2/1 82/3/1 80/4/1
f 81/1/1 83/2/1 84/3/1 82/4/1
f 85/1/1 86/2/1 87/3/1 88/4/1
f 86/1/1 89/2/1 90/3/1 87/4/1
f 89/1/1 91/2/1 92/3/1 90/4/1
f 91/1/1 93/2/1 94/3/1 92/4/1
f 93/1/1 95/2/1 96/3/1 94/4/1
f 95/1/1 97/2/1 98/3/1 96/4/1
f 97/1/1 99/2/1 100/3/1 98/4/1
f 99/1/1 101/2/1 102/3/1 100/4/1
f 101/1/1 103/2/1 104/3/1 102/4/1
f 103/1/1 105/2/1 106/3/1 104/4/1
f 105/1/1 107/2/1 108/3/1 106/4/1
f 107/1/1 109/2/1 110/3/1 108/4/1
f 109/1/1 111/2/1 112/3/1 110/4/1
f 111/1/1 113/2/1 114/3/1 112/4/1
f 113/1/1 115/2/1 116/3/1 114/4/1
f 115/1/1 117/2/1 118/3/1 116/4/1
f 117/1/1 119/2/1 120/3/1 118/4/1
f 119/1/1 121/2/1 122/3/1 120/4/1
f 121/1/1 123/2/1 124/3/1 122/4/1
f 123/1/1 125/2/1 126/3/1 124/4/1
f 127/1/1 128/2/1 129/3/1 130/4/1
f 128/1/1 131/2/1 132/3/1 129/4/1
f 131/1/1 133/2/1 134/3/1 132/4/1
f 133/1/1 135/2/1 136/3/1 134/4/1
f 135/1/1 137/2/1 138/3/1 136/4/1
f 137/1/1 139/2/1 140/3/1 138/4/1
f 139/1/1 141/2/1 142/3/1 140/4/1
f 141/1/1 143/2/1 144/3/1 142/4/1
f 143/1/1 145/2/1 146/3/1 144/4/1
f 145/1/1 147/2/1 148/3/1 146/4/1
f 147/1/1 149/2/1 150/3/1 148/4/1
f 149/1/1 151/2/1 152/3/1 150/4/1
f 151/1/1 153/2/1 154/3/1 152/4/1
f 153/1/1 155/2/1 156/3/1 154/4/1
f 155/1/1 157/2/1 158/3/1 156/4/1
f 157/1/1 159/2/1 160/3/1 158/4/1
f 159/1/1 161/2/1 162/3/1 160/4/1
f 161/1/1 163/2/1 164/3/1 162/4/1
f 163/1/1 165/2/1 166/3/1 164/4/1
f 165/1/1 167/2/1 168/3/1 166/4/1
f 169/1/1 170/2/1 171/3/1 172/4/1
f 170/1/1 173/2/1 174/3/1 171/4/1
f 173/1/1 175/2/1 176/3/1 174/4/1
f 175/5/1 177/6/1 178/7/1 176/8/1
f 177/5/1 179/6/1 180/7/1 178/8/1
f 179/5/1 181/6/1 182/7/1 180/8/1
f 181/5/1 183/6/1 184/7/1 182/8/1
f 183/5/1 185/6/1 186/7/1 184/8/1
f 185/5/1 187/6/1 188/7/1 186/8/1
f 187/5/1 189/6/1 190/7/1 188/8/1
f 189/5/1 191/6/1 192/7/1 190/8/1
f 191/5/1 193/6/1 194/7/1 192/8/1
f 193/5/1 195/6/1 196/7/1 194/8/1
f 195/5/1 197/6/1 198/7/1 196/8/1
f 197/5/1 199/6/1 200/7/1 198/8/1
f 199/5/1 201/6/1 202/7/1 200/8/1
f 201/1/1 203/2/1 204/3/1 202/4/1
f 203/1/1 205/2/1 206/3/1 204/4/1
f 205/1/1 207/2/1 208/3/1 206/4/1
f 207/1/1 209/2/1 210/3/1 208/4/1
f 211/5/1 212/6/1 213/7/1 214/8/1
f 212/5/1 215/6/1 216/7/1 213/8/1
f 215/5/1 217/6/1 218/7/1 216/8/1
f 217/9/1 219/10/1 220/11/1 218/12/1
f 219/9/1 221/10/1 222/11/1 220/12/1
f 221/9/1 223/10/1 224/11/1 222/12/1
f 223/9/1 225/10/1 226/11/1 224/12/1
f 225/9/1 227/10/1 228/11/1 226/12/1
f 227/9/1 229/10/1 230/11/1 228/12/1
f 229/9/1 231/10/1 232/11/1 230/12/1
f 231/9/1 233/10/1 234/11/1 232/12/1
f 233/9/1 235/10/1 236/11/1 234/12/1
f 235/9/1 237/10/1 238/11/1 236/12/1
f 237/9/1 239/10/1 240/11/1 238/12/1
f 239/9/1 241/10/1 242/11/1 240/12/1
f 241/9/1 243/10/1 244/11/1 242/12/1
f 243/1/1 245/2/1 246/3/1 244/4/1
f 245/1/1 247/2/1 248/3/1 246/4/1
f 247/1/1 249/2/1 250/3/1 248/4/1
f 249/1/1 251/2/1 252/3/1 250/4/1
f 253/9/1 254/10/1 255/11/1 256/12/1
f 254/9/1 257/10/1 258/11/1 255/12/1
f 257/9/1 259/10/1 260/11/1 258/12/1
f 259/13/1 261/14/1 262/15/1 260/16/1
f 261/13/1 263/14/1 264/15/1 262/16/1
f 263/13/1 265/14/1 266/15/1 264/16/1
f 265/13/1 267/14/1 268/15/1 266/16/1
f 267/13/1 269/14/1 270/15/1 268/16/1
f 269/13/1 271/14/1 272/15/1 270/16/1
f 271/13/1 273/14/1 274/15/1 272/16/1
f 273/13/1 275/14/1 276/15/1 274/16/1
f 275/13/1 277/14/1 278/15/1 276/16/1
f 277/13/1 279/14/1 280/15/1 278/16/1
f 279/13/1 281/14/1 282/15/1 280/16/1
f 281/13/1 283/14/1 284/15/1 282/16/1
f 283/13/1 285/14/1 286/15/1 284/16/1
f 285/1/1 287/2/1 288/3/1 286/4/1
f 287/1/1 289/2/1 290/3/1 288/4/1
f 289/1/1 291/2/1 292/3/1 290/4/1
f 291/1/1 293/2/1 294/3/1 292/4/1
f 295/13/1 296/14/1 297/15/1 298/16/1
f 296/13/1 299/14/1 300/15/1 297/16/1
f 299/13/1 301/14/1 302/15/1 300/16/1
f 301/13/1 303/14/1 304/15/1 302/16/1
f 303/17/1 305/18/1 306/19/1 304/20/1
f 305/17/1 307/18/1 308/19/1 306/20/1
f 307/17/1 309/18/1 310/19/1 308/20/1
f 309/17/1 311/18/1 312/19/1 310/20/1
f 311/17/1 313/18/1 314/19/1 312/20/1
f 313/17/1 315/18/1 316/19/1 314/20/1
f 315/17/1 317/18/1 318/19/1 316/20/1
f 317/17/1 319/18/1 320/19/1 318/20/1
f 319/17/1 321/18/1 322/19/1 320/20/1
f 321/17/1 323/18/1 324/19/1 322/20/1
f 323/17/1 325/18/1 326/19/1 324/20/1
f 325/13/1 327/14/1 328/15/1 326/16/1
f 327/1/1 329/2/1 330/3/1 328/4/1
f 329/1/1 331/2/1 332/3/1 330/4/1
f 331/1/1 333/2/1 334/3/1 332/4/1
f 333/1/1 335/2/1 336/3/1 334/4/1
f 337/13/1 338/14/1 339/15/1 340/16/1
f 338/13/1 341/14/1 342/15/1 339/16/1
f 341/13/1 343/14/1 344/15/1 342/16/1
f 343/13/1 345/14/1 346/15/1 344/16/1
f 345/17/1 347/18/1 348/19/1 346/20/1
f 347/17/1 349/18/1 350/19/1 348/20/1
f 349/17/1 351/18/1 352/19/1 350/20/1
f 351/17/1 353/18/1 354/19/1 352/20/1
f 353/17/1 355/18/1 356/19/1 354/20/1
f 355/17/1 357/18/1 358/19/1 356/20/1
f 357/17/1 359/18/1 360/19/1 358/20/1
f 359/17/1 361/18/1 362/19/1 360/20/1
f 361/17/1 363/18/1 364/19/1 362/20/1
f 363/17/1 365/18/1 366/19/1 364/20/1
f 365/17/1 367/18/1 368/19/1 366/20/1
f 367/13/1 369/14/1 370/15/1 368/16/1
f 369/1/1 371/2/1 372/3/1 370/4/1
f 371/1/1 373/2/1 374/3/1 372/4/1
f 373/1/1 375/2/1 376/3/1 374/4/1
f 375/1/1 377/2/1 378/3/1 376/4/1
f 379/1/1 380/2/1 381/3/1 382/4/1
f 380/1/1 383/2/1 384/3/1 381/4/1
f 383/1/1 385/2/1 386/3/1 384/4/1
f 385/13/1 387/14/1 388/15/1 386/16/1
f 387/17/1 389/18/1 390/19/1 388/20/1
f 389/17/1 391/18/1 392/19/1 390/20/1
f 391/17/1 393/18/1 394/19/1 392/20/1
f 393/17/1 395/18/1 396/19/1 394/20/1
f 395/17/1 397/18/1 398/19/1 396/20/1
f 397/17/1 399/18/1 400/19/1 398/20/1
f 399/17/1 401/18/1 402/19/1 400/20/1
f 401/17/1 403/18/1 404/19/1 402/20/1
f 403/17/1 405/18/1 406/19/1 404/20/1
f 405/17/1 407/18/1 408/19/1 406/20/1
f 407/17/1 409/18/1 410/19/1 408/20/1
f 409/13/1 411/14/1 412/15/1 410/16/1
f 411/1/1 413/2/1 414/3/1 412/4/1
f 413/1/1 415/2/1 416/3/1 414/4/1
f 415/1/1 417/2/1 418/3/1 416/4/1
f 417/1/1 419/2/1 420/3/1 418/4/1
f 421/1/1 422/2/1 423/3/1 424/4/1
f 422/1/1 425/2/1 426/3/1 423/4/1
f 425/1/1 427/2/1 428/3/1 426/4/1
f 427/13/1 429/14/1 430/15/1 428/16/1
f 429/17/1 431/18/1 432/19/1 430/20/1
f 431/17/1 433/18/1 434/19/1 432/20/1
f 433/17/1 435/18/1 436/19/1 434/20/1
f 435/17/1 437/18/1 438/19/1 436/20/1
f 437/17/1 439/18/1 440/19/1 438/20/1
f 439/17/1 441/18/1 442/19/1 440/20/1
f 441/17/1 443/18/1 444/19/1 442/20/1
f 443/17/1 445/18/1 446/19/1 444/20/1
f 445/17/1 447/18/1 448/19/1 446/20/1
f 447/17/1 449/18/1 450/19/1 448/20/1
f 449/17/1 451/18/1 452/19/1 450/20/1
f 451/13/1 453/14/1 454/15/1 452/16/1
f 453/1/1 455/2/1 456/3/1 454/4/1
f 455/1/1 457/2/1 458/3/1 456/4/1
f 457/1/1 459/2/1 460/3/1 458/4/1
f 459/1/1 461/2/1 462/3/1 460/4/1
f 463/1/1 464/2/1 465/3/1 466/4/1
f 464/1/1 467/2/1 468/3/1 465/4/1
f 467/1/1 469/2/1 470/3/1 468/4/1
f 469/13/1 471/14/1 472/15/1 470/16/1
f 471/17/1 473/18/1 474/19/1 472/20/1
f 473/17/1 475/18/1 476/19/1 474/20/1
f 475/17/1 477/18/1 478/19/1 476/20/1
f 477/17/1 479/18/1 480/19/1 478/20/1
f 479/17/1 481/18/1 482/19/1 480/20/1
f 481/17/1 483/18/1 484/19/1 482/20/1
f 483/17/1 485/18/1 486/19/1 484/20/1
f 485/17/1 487/18/1 488/19/1 486/20/1
f 487/17/1 489/18/1 490/19/1 488/20/1
f 489/17/1 491/18/1 492/19/1 490/20/1
f 491/17/1 493/18/1 494/19/1 492/20/1
f 493/13/1 495/14/1 496/15/1 494/16/1
f 495/1/1 497/2/1 498/3/1 496/4/1
f 497/1/1 499/2/1 500/3/1 498/4/1
f 499/1/1 501/2/1 502/3/1 500/4/1
f 501/1/1 503/2/1 504/3/1 502/4/1
f 505/1/1 506/2/1 507/3/1 508/4/1
f 506/1/1 509/2/1 510/3/1 507/4/1
f 509/1/1 511/2/1 512/3/1 510/4/1
f 511/13/1 513/14/1 514/15/1 512/16/1
f 513/13/1 515/14/1 516/15/1 514/16/1
f 515/13/1 517/14/1 518/15/1 516/16/1
f 517/13/1 519/14/1 520/15/1 518/16/1
f 519/13/1 521/14/1 522/15/1 520/16/1
f 521/13/1 523/14/1 524/15/1 522/16/1
f 523/13/1 525/14/1 526/15/1 524/16/1
f 525/13/1 527/14/1 528/15/1 526/16/1
f 527/13/1 529/14/1 530/15/1 528/16/1
f 529/13/1 531/14/1 532/15/1 530/16/1
f 531/13/1 533/14/1 534/15/1 532/16/1
f 533/13/1 535/14/1 536/15/1 534/16/1
f 535/13/1 537/14/1 538/15/1 536/16/1
f 537/1/1 539/2/1 540/3/1 538/4/1
f 539/1/1 541/2/1 542/3/1 540/4/1
f 541/1/1 543/2/1 544/3/1 542/4/1
f 543/1/1 545/2/1 546/3/1 544/4/1
f 547/1/1 548/2/1 549/3/1 550/4/1
f 548/1/1 551/2/1 552/3/1 549/4/1
f 551/1/1 553/2/1 554/3/1 552/4/1
f 553/1/1 555/2/1 556/3/1 554/4/1
f 555/1/1 557/2/1 558/3/1 556/4/1
f 557/1/1 559/2/1 560/3/1 558/4/1
f 559/1/1 561/2/1 562/3/1 560/4/1
f 561/1/1 563/2/1 564/3/1 562/4/1
f 563/1/1 565/2/1 566/3/1 564/4/1
f 565/1/1 567/2/1 568/3/1 566/4/1
f 567/1/1 569/2/1 570/3/1 568/4/1
f 569/1/1 571/2/1 572/3/1 570/4/1
f 571/1/1 573/2/1 574/3/1 572/4/1
f 573/1/1 575/2/1 576/3/1 574/4/1
f 575/1/1 577/2/1 578/3/1 576/4/1
f 577/1/1 579/2/1 580/3/1 578/4/1
f 579/1/1 581/2/1 582/3/1 580/4/1
f 581/1/1 583/2/1 584/3/1 582/4/1
f 583/1/1 585/2/1 586/3/1 584/4/1
f 585/1/1 587/2/1 588/3/1 586/4/1
f 589/1/1 590/2/1 591/3/1 592/4/1
f 590/1/1 593/2/1 594/3/1 591/4/1
f 593/1/1 595/2/1 596/3/1 594/4/1
f 595/1/1 597/2/1 598/3/1 596/4/1
f 597/1/1 599/2/1 600/3/1 598/4/1
f 599/1/1 601/2/1 602/3/1 600/4/1
f 601/1/1 603/2/1 604/3/1 602/4/1
f 603/1/1 605/2/1 606/3/1 604/4/1
f 605/1/1 607/2/1 608/3/1 606/4/1
f 607/1/1 609/2/1 610/3/1 608/4/1
f 609/1/1 611/2/1 612/3/1 610/4/1
f 611/1/1 613/2/1 614/3/1 612/4/1
f 613/1/1 615/2/1 616/3/1 614/4/1
f 615/1/1 617/2/1 618/3/1 616/4/1
f 617/1/1 619/2/1 620/3/1 618/4/1
f 619/1/1 621/2/1 622/3/1 620/4/1
f 621/1/1 623/2/1 624/3/1 622/4/1
f 623/1/1 625/2/1 626/3/1 624/4/1
f 625/1/1 627/2/1 628/3/1 626/4/1
f 627/1/1 629/2/1 630/3/1 628/4/1

