# Wavefront OBJ file automatically generated by Tiled2Unity

# Vertices (Count = 630)
v 0 -16 -0.06666667
v -16 -16 -0.06666667
v -16 0 -0.06666667
v 0 0 -0.06666667
v -32 -16 -0.06666667
v -32 0 -0.06666667
v -48 -16 -0.06666667
v -48 0 -0.06666667
v -64 -16 -0.06666667
v -64 0 -0.06666667
v -80 -16 -0.06666667
v -80 0 -0.06666667
v -96 -16 -0.06666667
v -96 0 -0.06666667
v -112 -16 -0.06666667
v -112 0 -0.06666667
v -128 -16 -0.06666667
v -128 0 -0.06666667
v -144 -16 -0.06666667
v -144 0 -0.06666667
v -160 -16 -0.06666667
v -160 0 -0.06666667
v -176 -16 -0.06666667
v -176 0 -0.06666667
v -192 -16 -0.06666667
v -192 0 -0.06666667
v -208 -16 -0.06666667
v -208 0 -0.06666667
v -224 -16 -0.06666667
v -224 0 -0.06666667
v -240 -16 -0.06666667
v -240 0 -0.06666667
v -256 -16 -0.06666667
v -256 0 -0.06666667
v -272 -16 -0.06666667
v -272 0 -0.06666667
v -288 -16 -0.06666667
v -288 0 -0.06666667
v -304 -16 -0.06666667
v -304 0 -0.06666667
v -320 -16 -0.06666667
v -320 0 -0.06666667
v 0 -32 -0.1333333
v -16 -32 -0.1333333
v -16 -16 -0.1333333
v 0 -16 -0.1333333
v -32 -32 -0.1333333
v -32 -16 -0.1333333
v -48 -32 -0.1333333
v -48 -16 -0.1333333
v -64 -32 -0.1333333
v -64 -16 -0.1333333
v -80 -32 -0.1333333
v -80 -16 -0.1333333
v -96 -32 -0.1333333
v -96 -16 -0.1333333
v -112 -32 -0.1333333
v -112 -16 -0.1333333
v -128 -32 -0.1333333
v -128 -16 -0.1333333
v -144 -32 -0.1333333
v -144 -16 -0.1333333
v -160 -32 -0.1333333
v -160 -16 -0.1333333
v -176 -32 -0.1333333
v -176 -16 -0.1333333
v -192 -32 -0.1333333
v -192 -16 -0.1333333
v -208 -32 -0.1333333
v -208 -16 -0.1333333
v -224 -32 -0.1333333
v -224 -16 -0.1333333
v -240 -32 -0.1333333
v -240 -16 -0.1333333
v -256 -32 -0.1333333
v -256 -16 -0.1333333
v -272 -32 -0.1333333
v -272 -16 -0.1333333
v -288 -32 -0.1333333
v -288 -16 -0.1333333
v -304 -32 -0.1333333
v -304 -16 -0.1333333
v -320 -32 -0.1333333
v -320 -16 -0.1333333
v 0 -48 -0.2
v -16 -48 -0.2
v -16 -32 -0.2
v 0 -32 -0.2
v -32 -48 -0.2
v -32 -32 -0.2
v -48 -48 -0.2
v -48 -32 -0.2
v -64 -48 -0.2
v -64 -32 -0.2
v -80 -48 -0.2
v -80 -32 -0.2
v -96 -48 -0.2
v -96 -32 -0.2
v -112 -48 -0.2
v -112 -32 -0.2
v -128 -48 -0.2
v -128 -32 -0.2
v -144 -48 -0.2
v -144 -32 -0.2
v -160 -48 -0.2
v -160 -32 -0.2
v -176 -48 -0.2
v -176 -32 -0.2
v -192 -48 -0.2
v -192 -32 -0.2
v -208 -48 -0.2
v -208 -32 -0.2
v -224 -48 -0.2
v -224 -32 -0.2
v -240 -48 -0.2
v -240 -32 -0.2
v -256 -48 -0.2
v -256 -32 -0.2
v -272 -48 -0.2
v -272 -32 -0.2
v -288 -48 -0.2
v -288 -32 -0.2
v -304 -48 -0.2
v -304 -32 -0.2
v -320 -48 -0.2
v -320 -32 -0.2
v 0 -64 -0.2666667
v -16 -64 -0.2666667
v -16 -48 -0.2666667
v 0 -48 -0.2666667
v -32 -64 -0.2666667
v -32 -48 -0.2666667
v -48 -64 -0.2666667
v -48 -48 -0.2666667
v -64 -64 -0.2666667
v -64 -48 -0.2666667
v -80 -64 -0.2666667
v -80 -48 -0.2666667
v -96 -64 -0.2666667
v -96 -48 -0.2666667
v -112 -64 -0.2666667
v -112 -48 -0.2666667
v -128 -64 -0.2666667
v -128 -48 -0.2666667
v -144 -64 -0.2666667
v -144 -48 -0.2666667
v -160 -64 -0.2666667
v -160 -48 -0.2666667
v -176 -64 -0.2666667
v -176 -48 -0.2666667
v -192 -64 -0.2666667
v -192 -48 -0.2666667
v -208 -64 -0.2666667
v -208 -48 -0.2666667
v -224 -64 -0.2666667
v -224 -48 -0.2666667
v -240 -64 -0.2666667
v -240 -48 -0.2666667
v -256 -64 -0.2666667
v -256 -48 -0.2666667
v -272 -64 -0.2666667
v -272 -48 -0.2666667
v -288 -64 -0.2666667
v -288 -48 -0.2666667
v -304 -64 -0.2666667
v -304 -48 -0.2666667
v -320 -64 -0.2666667
v -320 -48 -0.2666667
v 0 -80 -0.3333333
v -16 -80 -0.3333333
v -16 -64 -0.3333333
v 0 -64 -0.3333333
v -32 -80 -0.3333333
v -32 -64 -0.3333333
v -48 -80 -0.3333333
v -48 -64 -0.3333333
v -64 -80 -0.3333333
v -64 -64 -0.3333333
v -80 -80 -0.3333333
v -80 -64 -0.3333333
v -96 -80 -0.3333333
v -96 -64 -0.3333333
v -112 -80 -0.3333333
v -112 -64 -0.3333333
v -128 -80 -0.3333333
v -128 -64 -0.3333333
v -144 -80 -0.3333333
v -144 -64 -0.3333333
v -160 -80 -0.3333333
v -160 -64 -0.3333333
v -176 -80 -0.3333333
v -176 -64 -0.3333333
v -192 -80 -0.3333333
v -192 -64 -0.3333333
v -208 -80 -0.3333333
v -208 -64 -0.3333333
v -224 -80 -0.3333333
v -224 -64 -0.3333333
v -240 -80 -0.3333333
v -240 -64 -0.3333333
v -256 -80 -0.3333333
v -256 -64 -0.3333333
v -272 -80 -0.3333333
v -272 -64 -0.3333333
v -288 -80 -0.3333333
v -288 -64 -0.3333333
v -304 -80 -0.3333333
v -304 -64 -0.3333333
v -320 -80 -0.3333333
v -320 -64 -0.3333333
v 0 -96 -0.4
v -16 -96 -0.4
v -16 -80 -0.4
v 0 -80 -0.4
v -32 -96 -0.4
v -32 -80 -0.4
v -48 -96 -0.4
v -48 -80 -0.4
v -64 -96 -0.4
v -64 -80 -0.4
v -80 -96 -0.4
v -80 -80 -0.4
v -96 -96 -0.4
v -96 -80 -0.4
v -112 -96 -0.4
v -112 -80 -0.4
v -128 -96 -0.4
v -128 -80 -0.4
v -144 -96 -0.4
v -144 -80 -0.4
v -160 -96 -0.4
v -160 -80 -0.4
v -176 -96 -0.4
v -176 -80 -0.4
v -192 -96 -0.4
v -192 -80 -0.4
v -208 -96 -0.4
v -208 -80 -0.4
v -224 -96 -0.4
v -224 -80 -0.4
v -240 -96 -0.4
v -240 -80 -0.4
v -256 -96 -0.4
v -256 -80 -0.4
v -272 -96 -0.4
v -272 -80 -0.4
v -288 -96 -0.4
v -288 -80 -0.4
v -304 -96 -0.4
v -304 -80 -0.4
v -320 -96 -0.4
v -320 -80 -0.4
v 0 -112 -0.4666667
v -16 -112 -0.4666667
v -16 -96 -0.4666667
v 0 -96 -0.4666667
v -32 -112 -0.4666667
v -32 -96 -0.4666667
v -48 -112 -0.4666667
v -48 -96 -0.4666667
v -64 -112 -0.4666667
v -64 -96 -0.4666667
v -80 -112 -0.4666667
v -80 -96 -0.4666667
v -96 -112 -0.4666667
v -96 -96 -0.4666667
v -112 -112 -0.4666667
v -112 -96 -0.4666667
v -128 -112 -0.4666667
v -128 -96 -0.4666667
v -144 -112 -0.4666667
v -144 -96 -0.4666667
v -160 -112 -0.4666667
v -160 -96 -0.4666667
v -176 -112 -0.4666667
v -176 -96 -0.4666667
v -192 -112 -0.4666667
v -192 -96 -0.4666667
v -208 -112 -0.4666667
v -208 -96 -0.4666667
v -224 -112 -0.4666667
v -224 -96 -0.4666667
v -240 -112 -0.4666667
v -240 -96 -0.4666667
v -256 -112 -0.4666667
v -256 -96 -0.4666667
v -272 -112 -0.4666667
v -272 -96 -0.4666667
v -288 -112 -0.4666667
v -288 -96 -0.4666667
v -304 -112 -0.4666667
v -304 -96 -0.4666667
v -320 -112 -0.4666667
v -320 -96 -0.4666667
v 0 -128 -0.5333334
v -16 -128 -0.5333334
v -16 -112 -0.5333334
v 0 -112 -0.5333334
v -32 -128 -0.5333334
v -32 -112 -0.5333334
v -48 -128 -0.5333334
v -48 -112 -0.5333334
v -64 -128 -0.5333334
v -64 -112 -0.5333334
v -80 -128 -0.5333334
v -80 -112 -0.5333334
v -96 -128 -0.5333334
v -96 -112 -0.5333334
v -112 -128 -0.5333334
v -112 -112 -0.5333334
v -128 -128 -0.5333334
v -128 -112 -0.5333334
v -144 -128 -0.5333334
v -144 -112 -0.5333334
v -160 -128 -0.5333334
v -160 -112 -0.5333334
v -176 -128 -0.5333334
v -176 -112 -0.5333334
v -192 -128 -0.5333334
v -192 -112 -0.5333334
v -208 -128 -0.5333334
v -208 -112 -0.5333334
v -224 -128 -0.5333334
v -224 -112 -0.5333334
v -240 -128 -0.5333334
v -240 -112 -0.5333334
v -256 -128 -0.5333334
v -256 -112 -0.5333334
v -272 -128 -0.5333334
v -272 -112 -0.5333334
v -288 -128 -0.5333334
v -288 -112 -0.5333334
v -304 -128 -0.5333334
v -304 -112 -0.5333334
v -320 -128 -0.5333334
v -320 -112 -0.5333334
v 0 -144 -0.6
v -16 -144 -0.6
v -16 -128 -0.6
v 0 -128 -0.6
v -32 -144 -0.6
v -32 -128 -0.6
v -48 -144 -0.6
v -48 -128 -0.6
v -64 -144 -0.6
v -64 -128 -0.6
v -80 -144 -0.6
v -80 -128 -0.6
v -96 -144 -0.6
v -96 -128 -0.6
v -112 -144 -0.6
v -112 -128 -0.6
v -128 -144 -0.6
v -128 -128 -0.6
v -144 -144 -0.6
v -144 -128 -0.6
v -160 -144 -0.6
v -160 -128 -0.6
v -176 -144 -0.6
v -176 -128 -0.6
v -192 -144 -0.6
v -192 -128 -0.6
v -208 -144 -0.6
v -208 -128 -0.6
v -224 -144 -0.6
v -224 -128 -0.6
v -240 -144 -0.6
v -240 -128 -0.6
v -256 -144 -0.6
v -256 -128 -0.6
v -272 -144 -0.6
v -272 -128 -0.6
v -288 -144 -0.6
v -288 -128 -0.6
v -304 -144 -0.6
v -304 -128 -0.6
v -320 -144 -0.6
v -320 -128 -0.6
v 0 -160 -0.6666667
v -16 -160 -0.6666667
v -16 -144 -0.6666667
v 0 -144 -0.6666667
v -32 -160 -0.6666667
v -32 -144 -0.6666667
v -48 -160 -0.6666667
v -48 -144 -0.6666667
v -64 -160 -0.6666667
v -64 -144 -0.6666667
v -80 -160 -0.6666667
v -80 -144 -0.6666667
v -96 -160 -0.6666667
v -96 -144 -0.6666667
v -112 -160 -0.6666667
v -112 -144 -0.6666667
v -128 -160 -0.6666667
v -128 -144 -0.6666667
v -144 -160 -0.6666667
v -144 -144 -0.6666667
v -160 -160 -0.6666667
v -160 -144 -0.6666667
v -176 -160 -0.6666667
v -176 -144 -0.6666667
v -192 -160 -0.6666667
v -192 -144 -0.6666667
v -208 -160 -0.6666667
v -208 -144 -0.6666667
v -224 -160 -0.6666667
v -224 -144 -0.6666667
v -240 -160 -0.6666667
v -240 -144 -0.6666667
v -256 -160 -0.6666667
v -256 -144 -0.6666667
v -272 -160 -0.6666667
v -272 -144 -0.6666667
v -288 -160 -0.6666667
v -288 -144 -0.6666667
v -304 -160 -0.6666667
v -304 -144 -0.6666667
v -320 -160 -0.6666667
v -320 -144 -0.6666667
v 0 -176 -0.7333333
v -16 -176 -0.7333333
v -16 -160 -0.7333333
v 0 -160 -0.7333333
v -32 -176 -0.7333333
v -32 -160 -0.7333333
v -48 -176 -0.7333333
v -48 -160 -0.7333333
v -64 -176 -0.7333333
v -64 -160 -0.7333333
v -80 -176 -0.7333333
v -80 -160 -0.7333333
v -96 -176 -0.7333333
v -96 -160 -0.7333333
v -112 -176 -0.7333333
v -112 -160 -0.7333333
v -128 -176 -0.7333333
v -128 -160 -0.7333333
v -144 -176 -0.7333333
v -144 -160 -0.7333333
v -160 -176 -0.7333333
v -160 -160 -0.7333333
v -176 -176 -0.7333333
v -176 -160 -0.7333333
v -192 -176 -0.7333333
v -192 -160 -0.7333333
v -208 -176 -0.7333333
v -208 -160 -0.7333333
v -224 -176 -0.7333333
v -224 -160 -0.7333333
v -240 -176 -0.7333333
v -240 -160 -0.7333333
v -256 -176 -0.7333333
v -256 -160 -0.7333333
v -272 -176 -0.7333333
v -272 -160 -0.7333333
v -288 -176 -0.7333333
v -288 -160 -0.7333333
v -304 -176 -0.7333333
v -304 -160 -0.7333333
v -320 -176 -0.7333333
v -320 -160 -0.7333333
v 0 -192 -0.8
v -16 -192 -0.8
v -16 -176 -0.8
v 0 -176 -0.8
v -32 -192 -0.8
v -32 -176 -0.8
v -48 -192 -0.8
v -48 -176 -0.8
v -64 -192 -0.8
v -64 -176 -0.8
v -80 -192 -0.8
v -80 -176 -0.8
v -96 -192 -0.8
v -96 -176 -0.8
v -112 -192 -0.8
v -112 -176 -0.8
v -128 -192 -0.8
v -128 -176 -0.8
v -144 -192 -0.8
v -144 -176 -0.8
v -160 -192 -0.8
v -160 -176 -0.8
v -176 -192 -0.8
v -176 -176 -0.8
v -192 -192 -0.8
v -192 -176 -0.8
v -208 -192 -0.8
v -208 -176 -0.8
v -224 -192 -0.8
v -224 -176 -0.8
v -240 -192 -0.8
v -240 -176 -0.8
v -256 -192 -0.8
v -256 -176 -0.8
v -272 -192 -0.8
v -272 -176 -0.8
v -288 -192 -0.8
v -288 -176 -0.8
v -304 -192 -0.8
v -304 -176 -0.8
v -320 -192 -0.8
v -320 -176 -0.8
v 0 -208 -0.8666667
v -16 -208 -0.8666667
v -16 -192 -0.8666667
v 0 -192 -0.8666667
v -32 -208 -0.8666667
v -32 -192 -0.8666667
v -48 -208 -0.8666667
v -48 -192 -0.8666667
v -64 -208 -0.8666667
v -64 -192 -0.8666667
v -80 -208 -0.8666667
v -80 -192 -0.8666667
v -96 -208 -0.8666667
v -96 -192 -0.8666667
v -112 -208 -0.8666667
v -112 -192 -0.8666667
v -128 -208 -0.8666667
v -128 -192 -0.8666667
v -144 -208 -0.8666667
v -144 -192 -0.8666667
v -160 -208 -0.8666667
v -160 -192 -0.8666667
v -176 -208 -0.8666667
v -176 -192 -0.8666667
v -192 -208 -0.8666667
v -192 -192 -0.8666667
v -208 -208 -0.8666667
v -208 -192 -0.8666667
v -224 -208 -0.8666667
v -224 -192 -0.8666667
v -240 -208 -0.8666667
v -240 -192 -0.8666667
v -256 -208 -0.8666667
v -256 -192 -0.8666667
v -272 -208 -0.8666667
v -272 -192 -0.8666667
v -288 -208 -0.8666667
v -288 -192 -0.8666667
v -304 -208 -0.8666667
v -304 -192 -0.8666667
v -320 -208 -0.8666667
v -320 -192 -0.8666667
v 0 -224 -0.9333333
v -16 -224 -0.9333333
v -16 -208 -0.9333333
v 0 -208 -0.9333333
v -32 -224 -0.9333333
v -32 -208 -0.9333333
v -48 -224 -0.9333333
v -48 -208 -0.9333333
v -64 -224 -0.9333333
v -64 -208 -0.9333333
v -80 -224 -0.9333333
v -80 -208 -0.9333333
v -96 -224 -0.9333333
v -96 -208 -0.9333333
v -112 -224 -0.9333333
v -112 -208 -0.9333333
v -128 -224 -0.9333333
v -128 -208 -0.9333333
v -144 -224 -0.9333333
v -144 -208 -0.9333333
v -160 -224 -0.9333333
v -160 -208 -0.9333333
v -176 -224 -0.9333333
v -176 -208 -0.9333333
v -192 -224 -0.9333333
v -192 -208 -0.9333333
v -208 -224 -0.9333333
v -208 -208 -0.9333333
v -224 -224 -0.9333333
v -224 -208 -0.9333333
v -240 -224 -0.9333333
v -240 -208 -0.9333333
v -256 -224 -0.9333333
v -256 -208 -0.9333333
v -272 -224 -0.9333333
v -272 -208 -0.9333333
v -288 -224 -0.9333333
v -288 -208 -0.9333333
v -304 -224 -0.9333333
v -304 -208 -0.9333333
v -320 -224 -0.9333333
v -320 -208 -0.9333333
v 0 -240 -1
v -16 -240 -1
v -16 -224 -1
v 0 -224 -1
v -32 -240 -1
v -32 -224 -1
v -48 -240 -1
v -48 -224 -1
v -64 -240 -1
v -64 -224 -1
v -80 -240 -1
v -80 -224 -1
v -96 -240 -1
v -96 -224 -1
v -112 -240 -1
v -112 -224 -1
v -128 -240 -1
v -128 -224 -1
v -144 -240 -1
v -144 -224 -1
v -160 -240 -1
v -160 -224 -1
v -176 -240 -1
v -176 -224 -1
v -192 -240 -1
v -192 -224 -1
v -208 -240 -1
v -208 -224 -1
v -224 -240 -1
v -224 -224 -1
v -240 -240 -1
v -240 -224 -1
v -256 -240 -1
v -256 -224 -1
v -272 -240 -1
v -272 -224 -1
v -288 -240 -1
v -288 -224 -1
v -304 -240 -1
v -304 -224 -1
v -320 -240 -1
v -320 -224 -1

# Texture cooridinates (Count = 32)
vt 0.4286935 0.960122
vt 0.5713065 0.960122
vt 0.5713065 0.9998779
vt 0.4286935 0.9998779
vt 0.0001220703 0.960122
vt 0.1427351 0.960122
vt 0.1427351 0.9998779
vt 0.0001220703 0.9998779
vt 0.1429792 0.960122
vt 0.2855922 0.960122
vt 0.2855922 0.9998779
vt 0.1429792 0.9998779
vt 0.2858364 0.960122
vt 0.4284494 0.960122
vt 0.4284494 0.9998779
vt 0.2858364 0.9998779
vt 0.0001220703 0.9201221
vt 0.1427351 0.9201221
vt 0.1427351 0.9598779
vt 0.0001220703 0.9598779
vt 0.7778999 0.6667887
vt 0.8887668 0.6667887
vt 0.8887668 0.7221001
vt 0.7778999 0.7221001
vt 0.6667888 0.6667887
vt 0.7776557 0.6667887
vt 0.7776557 0.7221001
vt 0.6667888 0.7221001
vt 0.7778999 0.7223443
vt 0.8887668 0.7223443
vt 0.8887668 0.7776557
vt 0.7778999 0.7776557

# Normal
vn 0 0 -1

# Groups (Count = 3)

g mesh_0001
f 1/1/1 2/2/1 3/3/1 4/4/1
f 2/1/1 5/2/1 6/3/1 3/4/1
f 5/1/1 7/2/1 8/3/1 6/4/1
f 7/1/1 9/2/1 10/3/1 8/4/1
f 9/1/1 11/2/1 12/3/1 10/4/1
f 11/1/1 13/2/1 14/3/1 12/4/1
f 13/1/1 15/2/1 16/3/1 14/4/1
f 15/1/1 17/2/1 18/3/1 16/4/1
f 17/1/1 19/2/1 20/3/1 18/4/1
f 19/1/1 21/2/1 22/3/1 20/4/1
f 21/1/1 23/2/1 24/3/1 22/4/1
f 23/1/1 25/2/1 26/3/1 24/4/1
f 25/1/1 27/2/1 28/3/1 26/4/1
f 27/1/1 29/2/1 30/3/1 28/4/1
f 29/1/1 31/2/1 32/3/1 30/4/1
f 31/1/1 33/2/1 34/3/1 32/4/1
f 33/1/1 35/2/1 36/3/1 34/4/1
f 35/1/1 37/2/1 38/3/1 36/4/1
f 37/1/1 39/2/1 40/3/1 38/4/1
f 39/1/1 41/2/1 42/3/1 40/4/1
f 43/1/1 44/2/1 45/3/1 46/4/1
f 44/5/1 47/6/1 48/7/1 45/8/1
f 47/5/1 49/6/1 50/7/1 48/8/1
f 49/5/1 51/6/1 52/7/1 50/8/1
f 51/5/1 53/6/1 54/7/1 52/8/1
f 53/5/1 55/6/1 56/7/1 54/8/1
f 55/5/1 57/6/1 58/7/1 56/8/1
f 57/5/1 59/6/1 60/7/1 58/8/1
f 59/5/1 61/6/1 62/7/1 60/8/1
f 61/5/1 63/6/1 64/7/1 62/8/1
f 63/5/1 65/6/1 66/7/1 64/8/1
f 65/5/1 67/6/1 68/7/1 66/8/1
f 67/5/1 69/6/1 70/7/1 68/8/1
f 69/5/1 71/6/1 72/7/1 70/8/1
f 71/5/1 73/6/1 74/7/1 72/8/1
f 73/5/1 75/6/1 76/7/1 74/8/1
f 75/5/1 77/6/1 78/7/1 76/8/1
f 77/5/1 79/6/1 80/7/1 78/8/1
f 79/5/1 81/6/1 82/7/1 80/8/1
f 81/1/1 83/2/1 84/3/1 82/4/1
f 85/1/1 86/2/1 87/3/1 88/4/1
f 86/5/1 89/6/1 90/7/1 87/8/1
f 89/5/1 91/6/1 92/7/1 90/8/1
f 91/5/1 93/6/1 94/7/1 92/8/1
f 93/9/1 95/10/1 96/11/1 94/12/1
f 95/9/1 97/10/1 98/11/1 96/12/1
f 97/9/1 99/10/1 100/11/1 98/12/1
f 99/9/1 101/10/1 102/11/1 100/12/1
f 101/5/1 103/6/1 104/7/1 102/8/1
f 103/13/1 105/14/1 106/15/1 104/16/1
f 105/13/1 107/14/1 108/15/1 106/16/1
f 107/13/1 109/14/1 110/15/1 108/16/1
f 109/13/1 111/14/1 112/15/1 110/16/1
f 111/5/1 113/6/1 114/7/1 112/8/1
f 113/17/1 115/18/1 116/19/1 114/20/1
f 115/17/1 117/18/1 118/19/1 116/20/1
f 117/17/1 119/18/1 120/19/1 118/20/1
f 119/17/1 121/18/1 122/19/1 120/20/1
f 121/5/1 123/6/1 124/7/1 122/8/1
f 123/1/1 125/2/1 126/3/1 124/4/1
f 127/1/1 128/2/1 129/3/1 130/4/1
f 128/5/1 131/6/1 132/7/1 129/8/1
f 131/5/1 133/6/1 134/7/1 132/8/1
f 133/5/1 135/6/1 136/7/1 134/8/1
f 135/9/1 137/10/1 138/11/1 136/12/1
f 137/9/1 139/10/1 140/11/1 138/12/1
f 139/9/1 141/10/1 142/11/1 140/12/1
f 141/9/1 143/10/1 144/11/1 142/12/1
f 143/5/1 145/6/1 146/7/1 144/8/1
f 145/13/1 147/14/1 148/15/1 146/16/1
f 147/13/1 149/14/1 150/15/1 148/16/1
f 149/13/1 151/14/1 152/15/1 150/16/1
f 151/13/1 153/14/1 154/15/1 152/16/1
f 153/5/1 155/6/1 156/7/1 154/8/1
f 155/17/1 157/18/1 158/19/1 156/20/1
f 157/17/1 159/18/1 160/19/1 158/20/1
f 159/17/1 161/18/1 162/19/1 160/20/1
f 161/17/1 163/18/1 164/19/1 162/20/1
f 163/5/1 165/6/1 166/7/1 164/8/1
f 165/1/1 167/2/1 168/3/1 166/4/1
f 169/1/1 170/2/1 171/3/1 172/4/1
f 170/5/1 173/6/1 174/7/1 171/8/1
f 173/5/1 175/6/1 176/7/1 174/8/1
f 175/5/1 177/6/1 178/7/1 176/8/1
f 177/9/1 179/10/1 180/11/1 178/12/1
f 179/9/1 181/10/1 182/11/1 180/12/1
f 181/9/1 183/10/1 184/11/1 182/12/1
f 183/9/1 185/10/1 186/11/1 184/12/1
f 185/5/1 187/6/1 188/7/1 186/8/1
f 187/13/1 189/14/1 190/15/1 188/16/1
f 189/13/1 191/14/1 192/15/1 190/16/1
f 191/13/1 193/14/1 194/15/1 192/16/1
f 193/13/1 195/14/1 196/15/1 194/16/1
f 195/5/1 197/6/1 198/7/1 196/8/1
f 197/17/1 199/18/1 200/19/1 198/20/1
f 199/17/1 201/18/1 202/19/1 200/20/1
f 201/17/1 203/18/1 204/19/1 202/20/1
f 203/17/1 205/18/1 206/19/1 204/20/1
f 205/5/1 207/6/1 208/7/1 206/8/1
f 207/1/1 209/2/1 210/3/1 208/4/1
f 211/1/1 212/2/1 213/3/1 214/4/1
f 212/5/1 215/6/1 216/7/1 213/8/1
f 215/5/1 217/6/1 218/7/1 216/8/1
f 217/5/1 219/6/1 220/7/1 218/8/1
f 219/5/1 221/6/1 222/7/1 220/8/1
f 221/5/1 223/6/1 224/7/1 222/8/1
f 223/5/1 225/6/1 226/7/1 224/8/1
f 225/5/1 227/6/1 228/7/1 226/8/1
f 227/5/1 229/6/1 230/7/1 228/8/1
f 229/5/1 231/6/1 232/7/1 230/8/1
f 231/5/1 233/6/1 234/7/1 232/8/1
f 233/5/1 235/6/1 236/7/1 234/8/1
f 235/5/1 237/6/1 238/7/1 236/8/1
f 237/5/1 239/6/1 240/7/1 238/8/1
f 239/5/1 241/6/1 242/7/1 240/8/1
f 241/5/1 243/6/1 244/7/1 242/8/1
f 243/5/1 245/6/1 246/7/1 244/8/1
f 245/5/1 247/6/1 248/7/1 246/8/1
f 247/5/1 249/6/1 250/7/1 248/8/1
f 249/1/1 251/2/1 252/3/1 250/4/1
f 253/1/1 254/2/1 255/3/1 256/4/1
f 254/5/1 257/6/1 258/7/1 255/8/1
f 257/5/1 259/6/1 260/7/1 258/8/1
f 259/5/1 261/6/1 262/7/1 260/8/1
f 261/5/1 263/6/1 264/7/1 262/8/1
f 263/5/1 265/6/1 266/7/1 264/8/1
f 265/5/1 267/6/1 268/7/1 266/8/1
f 267/5/1 269/6/1 270/7/1 268/8/1
f 269/5/1 271/6/1 272/7/1 270/8/1
f 271/5/1 273/6/1 274/7/1 272/8/1
f 273/5/1 275/6/1 276/7/1 274/8/1
f 275/5/1 277/6/1 278/7/1 276/8/1
f 277/5/1 279/6/1 280/7/1 278/8/1
f 279/5/1 281/6/1 282/7/1 280/8/1
f 281/5/1 283/6/1 284/7/1 282/8/1
f 283/5/1 285/6/1 286/7/1 284/8/1
f 285/5/1 287/6/1 288/7/1 286/8/1
f 287/5/1 289/6/1 290/7/1 288/8/1
f 289/5/1 291/6/1 292/7/1 290/8/1
f 291/1/1 293/2/1 294/3/1 292/4/1
f 295/1/1 296/2/1 297/3/1 298/4/1
f 296/5/1 299/6/1 300/7/1 297/8/1
f 299/5/1 301/6/1 302/7/1 300/8/1
f 301/5/1 303/6/1 304/7/1 302/8/1
f 303/5/1 305/6/1 306/7/1 304/8/1
f 305/5/1 307/6/1 308/7/1 306/8/1
f 307/5/1 309/6/1 310/7/1 308/8/1
f 309/5/1 311/6/1 312/7/1 310/8/1
f 311/5/1 313/6/1 314/7/1 312/8/1
f 313/5/1 315/6/1 316/7/1 314/8/1
f 315/5/1 317/6/1 318/7/1 316/8/1
f 317/5/1 319/6/1 320/7/1 318/8/1
f 319/5/1 321/6/1 322/7/1 320/8/1
f 321/5/1 323/6/1 324/7/1 322/8/1
f 323/5/1 325/6/1 326/7/1 324/8/1
f 325/5/1 327/6/1 328/7/1 326/8/1
f 327/5/1 329/6/1 330/7/1 328/8/1
f 329/5/1 331/6/1 332/7/1 330/8/1
f 331/5/1 333/6/1 334/7/1 332/8/1
f 333/1/1 335/2/1 336/3/1 334/4/1
f 337/1/1 338/2/1 339/3/1 340/4/1
f 338/5/1 341/6/1 342/7/1 339/8/1
f 341/5/1 343/6/1 344/7/1 342/8/1
f 343/5/1 345/6/1 346/7/1 344/8/1
f 345/5/1 347/6/1 348/7/1 346/8/1
f 347/5/1 349/6/1 350/7/1 348/8/1
f 349/5/1 351/6/1 352/7/1 350/8/1
f 351/5/1 353/6/1 354/7/1 352/8/1
f 353/5/1 355/6/1 356/7/1 354/8/1
f 355/5/1 357/6/1 358/7/1 356/8/1
f 357/5/1 359/6/1 360/7/1 358/8/1
f 359/5/1 361/6/1 362/7/1 360/8/1
f 361/5/1 363/6/1 364/7/1 362/8/1
f 363/5/1 365/6/1 366/7/1 364/8/1
f 365/5/1 367/6/1 368/7/1 366/8/1
f 367/5/1 369/6/1 370/7/1 368/8/1
f 369/5/1 371/6/1 372/7/1 370/8/1
f 371/5/1 373/6/1 374/7/1 372/8/1
f 373/5/1 375/6/1 376/7/1 374/8/1
f 375/1/1 377/2/1 378/3/1 376/4/1
f 379/1/1 380/2/1 381/3/1 382/4/1
f 380/5/1 383/6/1 384/7/1 381/8/1
f 383/5/1 385/6/1 386/7/1 384/8/1
f 385/5/1 387/6/1 388/7/1 386/8/1
f 387/5/1 389/6/1 390/7/1 388/8/1
f 389/5/1 391/6/1 392/7/1 390/8/1
f 391/5/1 393/6/1 394/7/1 392/8/1
f 393/5/1 395/6/1 396/7/1 394/8/1
f 395/5/1 397/6/1 398/7/1 396/8/1
f 397/5/1 399/6/1 400/7/1 398/8/1
f 399/5/1 401/6/1 402/7/1 400/8/1
f 401/5/1 403/6/1 404/7/1 402/8/1
f 403/5/1 405/6/1 406/7/1 404/8/1
f 405/5/1 407/6/1 408/7/1 406/8/1
f 407/5/1 409/6/1 410/7/1 408/8/1
f 409/5/1 411/6/1 412/7/1 410/8/1
f 411/5/1 413/6/1 414/7/1 412/8/1
f 413/5/1 415/6/1 416/7/1 414/8/1
f 415/5/1 417/6/1 418/7/1 416/8/1
f 417/1/1 419/2/1 420/3/1 418/4/1
f 421/1/1 422/2/1 423/3/1 424/4/1
f 422/5/1 425/6/1 426/7/1 423/8/1
f 425/5/1 427/6/1 428/7/1 426/8/1
f 427/5/1 429/6/1 430/7/1 428/8/1
f 429/5/1 431/6/1 432/7/1 430/8/1
f 431/5/1 433/6/1 434/7/1 432/8/1
f 433/5/1 435/6/1 436/7/1 434/8/1
f 435/5/1 437/6/1 438/7/1 436/8/1
f 437/5/1 439/6/1 440/7/1 438/8/1
f 439/5/1 441/6/1 442/7/1 440/8/1
f 441/5/1 443/6/1 444/7/1 442/8/1
f 443/5/1 445/6/1 446/7/1 444/8/1
f 445/5/1 447/6/1 448/7/1 446/8/1
f 447/5/1 449/6/1 450/7/1 448/8/1
f 449/5/1 451/6/1 452/7/1 450/8/1
f 451/5/1 453/6/1 454/7/1 452/8/1
f 453/5/1 455/6/1 456/7/1 454/8/1
f 455/5/1 457/6/1 458/7/1 456/8/1
f 457/5/1 459/6/1 460/7/1 458/8/1
f 459/1/1 461/2/1 462/3/1 460/4/1
f 463/1/1 464/2/1 465/3/1 466/4/1
f 464/5/1 467/6/1 468/7/1 465/8/1
f 467/5/1 469/6/1 470/7/1 468/8/1
f 469/5/1 471/6/1 472/7/1 470/8/1
f 471/5/1 473/6/1 474/7/1 472/8/1
f 473/5/1 475/6/1 476/7/1 474/8/1
f 475/5/1 477/6/1 478/7/1 476/8/1
f 477/5/1 479/6/1 480/7/1 478/8/1
f 479/5/1 481/6/1 482/7/1 480/8/1
f 481/5/1 483/6/1 484/7/1 482/8/1
f 483/5/1 485/6/1 486/7/1 484/8/1
f 485/5/1 487/6/1 488/7/1 486/8/1
f 487/5/1 489/6/1 490/7/1 488/8/1
f 489/5/1 491/6/1 492/7/1 490/8/1
f 491/5/1 493/6/1 494/7/1 492/8/1
f 493/5/1 495/6/1 496/7/1 494/8/1
f 495/5/1 497/6/1 498/7/1 496/8/1
f 497/5/1 499/6/1 500/7/1 498/8/1
f 499/5/1 501/6/1 502/7/1 500/8/1
f 501/1/1 503/2/1 504/3/1 502/4/1
f 505/1/1 506/2/1 507/3/1 508/4/1
f 506/5/1 509/6/1 510/7/1 507/8/1
f 509/5/1 511/6/1 512/7/1 510/8/1
f 511/5/1 513/6/1 514/7/1 512/8/1
f 513/5/1 515/6/1 516/7/1 514/8/1
f 515/5/1 517/6/1 518/7/1 516/8/1
f 517/5/1 519/6/1 520/7/1 518/8/1
f 519/5/1 521/6/1 522/7/1 520/8/1
f 521/5/1 523/6/1 524/7/1 522/8/1
f 523/5/1 525/6/1 526/7/1 524/8/1
f 525/5/1 527/6/1 528/7/1 526/8/1
f 527/5/1 529/6/1 530/7/1 528/8/1
f 529/5/1 531/6/1 532/7/1 530/8/1
f 531/5/1 533/6/1 534/7/1 532/8/1
f 533/5/1 535/6/1 536/7/1 534/8/1
f 535/5/1 537/6/1 538/7/1 536/8/1
f 537/5/1 539/6/1 540/7/1 538/8/1
f 539/5/1 541/6/1 542/7/1 540/8/1
f 541/5/1 543/6/1 544/7/1 542/8/1
f 543/1/1 545/2/1 546/3/1 544/4/1
f 547/1/1 548/2/1 549/3/1 550/4/1
f 548/5/1 551/6/1 552/7/1 549/8/1
f 551/5/1 553/6/1 554/7/1 552/8/1
f 553/5/1 555/6/1 556/7/1 554/8/1
f 555/5/1 557/6/1 558/7/1 556/8/1
f 557/5/1 559/6/1 560/7/1 558/8/1
f 559/5/1 561/6/1 562/7/1 560/8/1
f 561/5/1 563/6/1 564/7/1 562/8/1
f 563/5/1 565/6/1 566/7/1 564/8/1
f 565/5/1 567/6/1 568/7/1 566/8/1
f 567/5/1 569/6/1 570/7/1 568/8/1
f 569/5/1 571/6/1 572/7/1 570/8/1
f 571/5/1 573/6/1 574/7/1 572/8/1
f 573/5/1 575/6/1 576/7/1 574/8/1
f 575/5/1 577/6/1 578/7/1 576/8/1
f 577/5/1 579/6/1 580/7/1 578/8/1
f 579/5/1 581/6/1 582/7/1 580/8/1
f 581/5/1 583/6/1 584/7/1 582/8/1
f 583/5/1 585/6/1 586/7/1 584/8/1
f 585/1/1 587/2/1 588/3/1 586/4/1
f 589/1/1 590/2/1 591/3/1 592/4/1
f 590/1/1 593/2/1 594/3/1 591/4/1
f 593/1/1 595/2/1 596/3/1 594/4/1
f 595/1/1 597/2/1 598/3/1 596/4/1
f 597/1/1 599/2/1 600/3/1 598/4/1
f 599/1/1 601/2/1 602/3/1 600/4/1
f 601/1/1 603/2/1 604/3/1 602/4/1
f 603/1/1 605/2/1 606/3/1 604/4/1
f 605/1/1 607/2/1 608/3/1 606/4/1
f 607/1/1 609/2/1 610/3/1 608/4/1
f 609/1/1 611/2/1 612/3/1 610/4/1
f 611/1/1 613/2/1 614/3/1 612/4/1
f 613/1/1 615/2/1 616/3/1 614/4/1
f 615/1/1 617/2/1 618/3/1 616/4/1
f 617/1/1 619/2/1 620/3/1 618/4/1
f 619/1/1 621/2/1 622/3/1 620/4/1
f 621/1/1 623/2/1 624/3/1 622/4/1
f 623/1/1 625/2/1 626/3/1 624/4/1
f 625/1/1 627/2/1 628/3/1 626/4/1
f 627/1/1 629/2/1 630/3/1 628/4/1

g mesh_0002
f 319/21/1 321/22/1 322/23/1 320/24/1
f 323/25/1 325/26/1 326/27/1 324/28/1

g mesh_0003
f 277/29/1 279/30/1 280/31/1 278/32/1

