# Wavefront OBJ file automatically generated by Tiled2Unity

# Vertices (Count = 252)
v -4 -1 0
v -5 -1 0
v -5 0 0
v -4 0 0
v -6 -1 0
v -6 0 0
v -10 -1 0
v -11 -1 0
v -11 0 0
v -10 0 0
v -12 -1 0
v -12 0 0
v -16 -1 0
v -17 -1 0
v -17 0 0
v -16 0 0
v -18 -1 0
v -18 0 0
v -3 -2 0
v -4 -2 0
v -3 -1 0
v -5 -2 0
v -6 -2 0
v -7 -2 0
v -7 -1 0
v -9 -2 0
v -10 -2 0
v -9 -1 0
v -11 -2 0
v -12 -2 0
v -13 -2 0
v -13 -1 0
v -15 -2 0
v -16 -2 0
v -15 -1 0
v -17 -2 0
v -18 -2 0
v -19 -2 0
v -19 -1 0
v -3 -3 0
v -4 -3 0
v -5 -3 0
v -6 -3 0
v -7 -3 0
v -9 -3 0
v -10 -3 0
v -11 -3 0
v -12 -3 0
v -13 -3 0
v -15 -3 0
v -16 -3 0
v -17 -3 0
v -18 -3 0
v -19 -3 0
v -3 -4 0
v -4 -4 0
v -5 -4 0
v -6 -4 0
v -7 -4 0
v -9 -4 0
v -10 -4 0
v -11 -4 0
v -12 -4 0
v -13 -4 0
v -15 -4 0
v -16 -4 0
v -17 -4 0
v -18 -4 0
v -19 -4 0
v -3 -5 0
v -4 -5 0
v -5 -5 0
v -6 -5 0
v -7 -5 0
v -9 -5 0
v -10 -5 0
v -11 -5 0
v -12 -5 0
v -13 -5 0
v -15 -5 0
v -16 -5 0
v -17 -5 0
v -18 -5 0
v -19 -5 0
v -3 -6 0
v -4 -6 0
v -5 -6 0
v -6 -6 0
v -7 -6 0
v -9 -6 0
v -10 -6 0
v -11 -6 0
v -12 -6 0
v -13 -6 0
v -15 -6 0
v -16 -6 0
v -17 -6 0
v -18 -6 0
v -19 -6 0
v -3 -7 0
v -4 -7 0
v -5 -7 0
v -6 -7 0
v -7 -7 0
v -9 -7 0
v -10 -7 0
v -11 -7 0
v -12 -7 0
v -13 -7 0
v -15 -7 0
v -16 -7 0
v -17 -7 0
v -18 -7 0
v -19 -7 0
v -3 -8 0
v -4 -8 0
v -5 -8 0
v -6 -8 0
v -7 -8 0
v -9 -8 0
v -10 -8 0
v -11 -8 0
v -12 -8 0
v -13 -8 0
v -15 -8 0
v -16 -8 0
v -17 -8 0
v -18 -8 0
v -19 -8 0
v 0 -9 0
v -1 -9 0
v -1 -8 0
v 0 -8 0
v -2 -9 0
v -2 -8 0
v -3 -9 0
v -4 -9 0
v -5 -9 0
v -6 -9 0
v -7 -9 0
v -8 -9 0
v -8 -8 0
v -9 -9 0
v -10 -9 0
v -11 -9 0
v -12 -9 0
v -13 -9 0
v -14 -9 0
v -14 -8 0
v -15 -9 0
v -16 -9 0
v -17 -9 0
v -18 -9 0
v -19 -9 0
v -20 -9 0
v -20 -8 0
v -21 -9 0
v -21 -8 0
v -22 -9 0
v -22 -8 0
v 0 -10 0
v -1 -10 0
v -2 -10 0
v -3 -10 0
v -4 -10 0
v -5 -10 0
v -6 -10 0
v -7 -10 0
v -8 -10 0
v -9 -10 0
v -10 -10 0
v -11 -10 0
v -12 -10 0
v -13 -10 0
v -14 -10 0
v -15 -10 0
v -16 -10 0
v -17 -10 0
v -18 -10 0
v -19 -10 0
v -20 -10 0
v -21 -10 0
v -22 -10 0
v 0 -11 0
v -1 -11 0
v -2 -11 0
v -3 -11 0
v -4 -11 0
v -5 -11 0
v -6 -11 0
v -7 -11 0
v -8 -11 0
v -9 -11 0
v -10 -11 0
v -11 -11 0
v -12 -11 0
v -13 -11 0
v -14 -11 0
v -15 -11 0
v -16 -11 0
v -17 -11 0
v -18 -11 0
v -19 -11 0
v -20 -11 0
v -21 -11 0
v -22 -11 0
v 0 -12 0
v -1 -12 0
v -2 -12 0
v -3 -12 0
v -4 -12 0
v -5 -12 0
v -6 -12 0
v -7 -12 0
v -8 -12 0
v -9 -12 0
v -10 -12 0
v -11 -12 0
v -12 -12 0
v -13 -12 0
v -14 -12 0
v -15 -12 0
v -16 -12 0
v -17 -12 0
v -18 -12 0
v -19 -12 0
v -20 -12 0
v -21 -12 0
v -22 -12 0
v 0 -13 0
v -1 -13 0
v -2 -13 0
v -3 -13 0
v -4 -13 0
v -5 -13 0
v -6 -13 0
v -7 -13 0
v -8 -13 0
v -9 -13 0
v -10 -13 0
v -11 -13 0
v -12 -13 0
v -13 -13 0
v -14 -13 0
v -15 -13 0
v -16 -13 0
v -17 -13 0
v -18 -13 0
v -19 -13 0
v -20 -13 0
v -21 -13 0
v -22 -13 0

# Texture cooridinates (Count = 20)
vt 0.6251221 0.6251221
vt 0.6873779 0.6251221
vt 0.6873779 0.6561279
vt 0.6251221 0.6561279
vt 0.6876221 0.6251221
vt 0.7498779 0.6251221
vt 0.7498779 0.6561279
vt 0.6876221 0.6561279
vt 0.8751221 0.7813721
vt 0.9373779 0.7813721
vt 0.9373779 0.8123779
vt 0.8751221 0.8123779
vt 0.06262207 0.9376221
vt 0.1248779 0.9376221
vt 0.1248779 0.9686279
vt 0.06262207 0.9686279
vt 0.6876221 0.7813721
vt 0.7498779 0.7813721
vt 0.7498779 0.8123779
vt 0.6876221 0.8123779

# Normal
vn 0 0 -1

# Groups (Count = 1)

g mesh_0001
f 1/1/1 2/2/1 3/3/1 4/4/1
f 2/5/1 5/6/1 6/7/1 3/8/1
f 7/1/1 8/2/1 9/3/1 10/4/1
f 8/5/1 11/6/1 12/7/1 9/8/1
f 13/1/1 14/2/1 15/3/1 16/4/1
f 14/5/1 17/6/1 18/7/1 15/8/1
f 19/9/1 20/10/1 1/11/1 21/12/1
f 20/13/1 22/14/1 2/15/1 1/16/1
f 22/13/1 23/14/1 5/15/1 2/16/1
f 23/9/1 24/10/1 25/11/1 5/12/1
f 26/9/1 27/10/1 7/11/1 28/12/1
f 27/13/1 29/14/1 8/15/1 7/16/1
f 29/13/1 30/14/1 11/15/1 8/16/1
f 30/9/1 31/10/1 32/11/1 11/12/1
f 33/9/1 34/10/1 13/11/1 35/12/1
f 34/13/1 36/14/1 14/15/1 13/16/1
f 36/13/1 37/14/1 17/15/1 14/16/1
f 37/9/1 38/10/1 39/11/1 17/12/1
f 40/9/1 41/10/1 20/11/1 19/12/1
f 41/13/1 42/14/1 22/15/1 20/16/1
f 42/13/1 43/14/1 23/15/1 22/16/1
f 43/9/1 44/10/1 24/11/1 23/12/1
f 45/9/1 46/10/1 27/11/1 26/12/1
f 46/13/1 47/14/1 29/15/1 27/16/1
f 47/13/1 48/14/1 30/15/1 29/16/1
f 48/9/1 49/10/1 31/11/1 30/12/1
f 50/9/1 51/10/1 34/11/1 33/12/1
f 51/13/1 52/14/1 36/15/1 34/16/1
f 52/13/1 53/14/1 37/15/1 36/16/1
f 53/9/1 54/10/1 38/11/1 37/12/1
f 55/9/1 56/10/1 41/11/1 40/12/1
f 56/13/1 57/14/1 42/15/1 41/16/1
f 57/13/1 58/14/1 43/15/1 42/16/1
f 58/9/1 59/10/1 44/11/1 43/12/1
f 60/9/1 61/10/1 46/11/1 45/12/1
f 61/13/1 62/14/1 47/15/1 46/16/1
f 62/13/1 63/14/1 48/15/1 47/16/1
f 63/9/1 64/10/1 49/11/1 48/12/1
f 65/9/1 66/10/1 51/11/1 50/12/1
f 66/13/1 67/14/1 52/15/1 51/16/1
f 67/13/1 68/14/1 53/15/1 52/16/1
f 68/9/1 69/10/1 54/11/1 53/12/1
f 70/9/1 71/10/1 56/11/1 55/12/1
f 71/13/1 72/14/1 57/15/1 56/16/1
f 72/13/1 73/14/1 58/15/1 57/16/1
f 73/9/1 74/10/1 59/11/1 58/12/1
f 75/9/1 76/10/1 61/11/1 60/12/1
f 76/13/1 77/14/1 62/15/1 61/16/1
f 77/13/1 78/14/1 63/15/1 62/16/1
f 78/9/1 79/10/1 64/11/1 63/12/1
f 80/9/1 81/10/1 66/11/1 65/12/1
f 81/13/1 82/14/1 67/15/1 66/16/1
f 82/13/1 83/14/1 68/15/1 67/16/1
f 83/9/1 84/10/1 69/11/1 68/12/1
f 85/9/1 86/10/1 71/11/1 70/12/1
f 86/13/1 87/14/1 72/15/1 71/16/1
f 87/13/1 88/14/1 73/15/1 72/16/1
f 88/9/1 89/10/1 74/11/1 73/12/1
f 90/9/1 91/10/1 76/11/1 75/12/1
f 91/13/1 92/14/1 77/15/1 76/16/1
f 92/13/1 93/14/1 78/15/1 77/16/1
f 93/9/1 94/10/1 79/11/1 78/12/1
f 95/9/1 96/10/1 81/11/1 80/12/1
f 96/13/1 97/14/1 82/15/1 81/16/1
f 97/13/1 98/14/1 83/15/1 82/16/1
f 98/9/1 99/10/1 84/11/1 83/12/1
f 100/9/1 101/10/1 86/11/1 85/12/1
f 101/13/1 102/14/1 87/15/1 86/16/1
f 102/13/1 103/14/1 88/15/1 87/16/1
f 103/9/1 104/10/1 89/11/1 88/12/1
f 105/9/1 106/10/1 91/11/1 90/12/1
f 106/13/1 107/14/1 92/15/1 91/16/1
f 107/13/1 108/14/1 93/15/1 92/16/1
f 108/9/1 109/10/1 94/11/1 93/12/1
f 110/9/1 111/10/1 96/11/1 95/12/1
f 111/13/1 112/14/1 97/15/1 96/16/1
f 112/13/1 113/14/1 98/15/1 97/16/1
f 113/9/1 114/10/1 99/11/1 98/12/1
f 115/9/1 116/10/1 101/11/1 100/12/1
f 116/13/1 117/14/1 102/15/1 101/16/1
f 117/13/1 118/14/1 103/15/1 102/16/1
f 118/9/1 119/10/1 104/11/1 103/12/1
f 120/9/1 121/10/1 106/11/1 105/12/1
f 121/13/1 122/14/1 107/15/1 106/16/1
f 122/13/1 123/14/1 108/15/1 107/16/1
f 123/9/1 124/10/1 109/11/1 108/12/1
f 125/9/1 126/10/1 111/11/1 110/12/1
f 126/13/1 127/14/1 112/15/1 111/16/1
f 127/13/1 128/14/1 113/15/1 112/16/1
f 128/9/1 129/10/1 114/11/1 113/12/1
f 130/17/1 131/18/1 132/19/1 133/20/1
f 131/17/1 134/18/1 135/19/1 132/20/1
f 134/17/1 136/18/1 115/19/1 135/20/1
f 136/17/1 137/18/1 116/19/1 115/20/1
f 137/13/1 138/14/1 117/15/1 116/16/1
f 138/13/1 139/14/1 118/15/1 117/16/1
f 139/17/1 140/18/1 119/19/1 118/20/1
f 140/17/1 141/18/1 142/19/1 119/20/1
f 141/17/1 143/18/1 120/19/1 142/20/1
f 143/17/1 144/18/1 121/19/1 120/20/1
f 144/13/1 145/14/1 122/15/1 121/16/1
f 145/13/1 146/14/1 123/15/1 122/16/1
f 146/17/1 147/18/1 124/19/1 123/20/1
f 147/17/1 148/18/1 149/19/1 124/20/1
f 148/17/1 150/18/1 125/19/1 149/20/1
f 150/17/1 151/18/1 126/19/1 125/20/1
f 151/13/1 152/14/1 127/15/1 126/16/1
f 152/13/1 153/14/1 128/15/1 127/16/1
f 153/17/1 154/18/1 129/19/1 128/20/1
f 154/17/1 155/18/1 156/19/1 129/20/1
f 155/17/1 157/18/1 158/19/1 156/20/1
f 157/17/1 159/18/1 160/19/1 158/20/1
f 161/13/1 162/14/1 131/15/1 130/16/1
f 162/13/1 163/14/1 134/15/1 131/16/1
f 163/13/1 164/14/1 136/15/1 134/16/1
f 164/13/1 165/14/1 137/15/1 136/16/1
f 165/13/1 166/14/1 138/15/1 137/16/1
f 166/13/1 167/14/1 139/15/1 138/16/1
f 167/13/1 168/14/1 140/15/1 139/16/1
f 168/13/1 169/14/1 141/15/1 140/16/1
f 169/13/1 170/14/1 143/15/1 141/16/1
f 170/13/1 171/14/1 144/15/1 143/16/1
f 171/13/1 172/14/1 145/15/1 144/16/1
f 172/13/1 173/14/1 146/15/1 145/16/1
f 173/13/1 174/14/1 147/15/1 146/16/1
f 174/13/1 175/14/1 148/15/1 147/16/1
f 175/13/1 176/14/1 150/15/1 148/16/1
f 176/13/1 177/14/1 151/15/1 150/16/1
f 177/13/1 178/14/1 152/15/1 151/16/1
f 178/13/1 179/14/1 153/15/1 152/16/1
f 179/13/1 180/14/1 154/15/1 153/16/1
f 180/13/1 181/14/1 155/15/1 154/16/1
f 181/13/1 182/14/1 157/15/1 155/16/1
f 182/13/1 183/14/1 159/15/1 157/16/1
f 184/13/1 185/14/1 162/15/1 161/16/1
f 185/13/1 186/14/1 163/15/1 162/16/1
f 186/13/1 187/14/1 164/15/1 163/16/1
f 187/13/1 188/14/1 165/15/1 164/16/1
f 188/13/1 189/14/1 166/15/1 165/16/1
f 189/13/1 190/14/1 167/15/1 166/16/1
f 190/13/1 191/14/1 168/15/1 167/16/1
f 191/13/1 192/14/1 169/15/1 168/16/1
f 192/13/1 193/14/1 170/15/1 169/16/1
f 193/13/1 194/14/1 171/15/1 170/16/1
f 194/13/1 195/14/1 172/15/1 171/16/1
f 195/13/1 196/14/1 173/15/1 172/16/1
f 196/13/1 197/14/1 174/15/1 173/16/1
f 197/13/1 198/14/1 175/15/1 174/16/1
f 198/13/1 199/14/1 176/15/1 175/16/1
f 199/13/1 200/14/1 177/15/1 176/16/1
f 200/13/1 201/14/1 178/15/1 177/16/1
f 201/13/1 202/14/1 179/15/1 178/16/1
f 202/13/1 203/14/1 180/15/1 179/16/1
f 203/13/1 204/14/1 181/15/1 180/16/1
f 204/13/1 205/14/1 182/15/1 181/16/1
f 205/13/1 206/14/1 183/15/1 182/16/1
f 207/13/1 208/14/1 185/15/1 184/16/1
f 208/13/1 209/14/1 186/15/1 185/16/1
f 209/13/1 210/14/1 187/15/1 186/16/1
f 210/13/1 211/14/1 188/15/1 187/16/1
f 211/13/1 212/14/1 189/15/1 188/16/1
f 212/13/1 213/14/1 190/15/1 189/16/1
f 213/13/1 214/14/1 191/15/1 190/16/1
f 214/13/1 215/14/1 192/15/1 191/16/1
f 215/13/1 216/14/1 193/15/1 192/16/1
f 216/13/1 217/14/1 194/15/1 193/16/1
f 217/13/1 218/14/1 195/15/1 194/16/1
f 218/13/1 219/14/1 196/15/1 195/16/1
f 219/13/1 220/14/1 197/15/1 196/16/1
f 220/13/1 221/14/1 198/15/1 197/16/1
f 221/13/1 222/14/1 199/15/1 198/16/1
f 222/13/1 223/14/1 200/15/1 199/16/1
f 223/13/1 224/14/1 201/15/1 200/16/1
f 224/13/1 225/14/1 202/15/1 201/16/1
f 225/13/1 226/14/1 203/15/1 202/16/1
f 226/13/1 227/14/1 204/15/1 203/16/1
f 227/13/1 228/14/1 205/15/1 204/16/1
f 228/13/1 229/14/1 206/15/1 205/16/1
f 230/13/1 231/14/1 208/15/1 207/16/1
f 231/13/1 232/14/1 209/15/1 208/16/1
f 232/13/1 233/14/1 210/15/1 209/16/1
f 233/13/1 234/14/1 211/15/1 210/16/1
f 234/13/1 235/14/1 212/15/1 211/16/1
f 235/13/1 236/14/1 213/15/1 212/16/1
f 236/13/1 237/14/1 214/15/1 213/16/1
f 237/13/1 238/14/1 215/15/1 214/16/1
f 238/13/1 239/14/1 216/15/1 215/16/1
f 239/13/1 240/14/1 217/15/1 216/16/1
f 240/13/1 241/14/1 218/15/1 217/16/1
f 241/13/1 242/14/1 219/15/1 218/16/1
f 242/13/1 243/14/1 220/15/1 219/16/1
f 243/13/1 244/14/1 221/15/1 220/16/1
f 244/13/1 245/14/1 222/15/1 221/16/1
f 245/13/1 246/14/1 223/15/1 222/16/1
f 246/13/1 247/14/1 224/15/1 223/16/1
f 247/13/1 248/14/1 225/15/1 224/16/1
f 248/13/1 249/14/1 226/15/1 225/16/1
f 249/13/1 250/14/1 227/15/1 226/16/1
f 250/13/1 251/14/1 228/15/1 227/16/1
f 251/13/1 252/14/1 229/15/1 228/16/1

