# Wavefront OBJ file automatically generated by Tiled2Unity

# Vertices (Count = 196)
v -80 -64 -0.2666667
v -96 -64 -0.2666667
v -96 -48 -0.2666667
v -80 -48 -0.2666667
v -112 -64 -0.2666667
v -112 -48 -0.2666667
v -128 -64 -0.2666667
v -128 -48 -0.2666667
v -144 -64 -0.2666667
v -144 -48 -0.2666667
v -160 -64 -0.2666667
v -160 -48 -0.2666667
v -176 -64 -0.2666667
v -176 -48 -0.2666667
v -192 -64 -0.2666667
v -192 -48 -0.2666667
v -208 -64 -0.2666667
v -208 -48 -0.2666667
v -224 -64 -0.2666667
v -224 -48 -0.2666667
v -240 -64 -0.2666667
v -240 -48 -0.2666667
v -80 -80 -0.3333333
v -96 -80 -0.3333333
v -96 -64 -0.3333333
v -80 -64 -0.3333333
v -112 -80 -0.3333333
v -112 -64 -0.3333333
v -128 -80 -0.3333333
v -128 -64 -0.3333333
v -144 -80 -0.3333333
v -144 -64 -0.3333333
v -160 -80 -0.3333333
v -160 -64 -0.3333333
v -176 -80 -0.3333333
v -176 -64 -0.3333333
v -192 -80 -0.3333333
v -192 -64 -0.3333333
v -208 -80 -0.3333333
v -208 -64 -0.3333333
v -224 -80 -0.3333333
v -224 -64 -0.3333333
v -240 -80 -0.3333333
v -240 -64 -0.3333333
v -80 -96 -0.4
v -96 -96 -0.4
v -96 -80 -0.4
v -80 -80 -0.4
v -112 -96 -0.4
v -112 -80 -0.4
v -128 -96 -0.4
v -128 -80 -0.4
v -144 -96 -0.4
v -144 -80 -0.4
v -160 -96 -0.4
v -160 -80 -0.4
v -176 -96 -0.4
v -176 -80 -0.4
v -192 -96 -0.4
v -192 -80 -0.4
v -208 -96 -0.4
v -208 -80 -0.4
v -224 -96 -0.4
v -224 -80 -0.4
v -240 -96 -0.4
v -240 -80 -0.4
v -80 -112 -0.4666667
v -96 -112 -0.4666667
v -96 -96 -0.4666667
v -80 -96 -0.4666667
v -112 -112 -0.4666667
v -112 -96 -0.4666667
v -128 -112 -0.4666667
v -128 -96 -0.4666667
v -144 -112 -0.4666667
v -144 -96 -0.4666667
v -160 -112 -0.4666667
v -160 -96 -0.4666667
v -176 -112 -0.4666667
v -176 -96 -0.4666667
v -192 -112 -0.4666667
v -192 -96 -0.4666667
v -208 -112 -0.4666667
v -208 -96 -0.4666667
v -224 -112 -0.4666667
v -224 -96 -0.4666667
v -240 -112 -0.4666667
v -240 -96 -0.4666667
v -80 -128 -0.5333334
v -96 -128 -0.5333334
v -96 -112 -0.5333334
v -80 -112 -0.5333334
v -112 -128 -0.5333334
v -112 -112 -0.5333334
v -128 -128 -0.5333334
v -128 -112 -0.5333334
v -144 -128 -0.5333334
v -144 -112 -0.5333334
v -176 -128 -0.5333334
v -192 -128 -0.5333334
v -192 -112 -0.5333334
v -176 -112 -0.5333334
v -208 -128 -0.5333334
v -208 -112 -0.5333334
v -224 -128 -0.5333334
v -224 -112 -0.5333334
v -240 -128 -0.5333334
v -240 -112 -0.5333334
v -80 -144 -0.6
v -96 -144 -0.6
v -96 -128 -0.6
v -80 -128 -0.6
v -112 -144 -0.6
v -112 -128 -0.6
v -128 -144 -0.6
v -128 -128 -0.6
v -144 -144 -0.6
v -144 -128 -0.6
v -160 -144 -0.6
v -160 -128 -0.6
v -176 -144 -0.6
v -176 -128 -0.6
v -192 -144 -0.6
v -192 -128 -0.6
v -208 -144 -0.6
v -208 -128 -0.6
v -224 -144 -0.6
v -224 -128 -0.6
v -240 -144 -0.6
v -240 -128 -0.6
v -80 -160 -0.6666667
v -96 -160 -0.6666667
v -96 -144 -0.6666667
v -80 -144 -0.6666667
v -112 -160 -0.6666667
v -112 -144 -0.6666667
v -128 -160 -0.6666667
v -128 -144 -0.6666667
v -144 -160 -0.6666667
v -144 -144 -0.6666667
v -160 -160 -0.6666667
v -160 -144 -0.6666667
v -176 -160 -0.6666667
v -176 -144 -0.6666667
v -192 -160 -0.6666667
v -192 -144 -0.6666667
v -208 -160 -0.6666667
v -208 -144 -0.6666667
v -224 -160 -0.6666667
v -224 -144 -0.6666667
v -240 -160 -0.6666667
v -240 -144 -0.6666667
v -80 -176 -0.7333333
v -96 -176 -0.7333333
v -96 -160 -0.7333333
v -80 -160 -0.7333333
v -112 -176 -0.7333333
v -112 -160 -0.7333333
v -128 -176 -0.7333333
v -128 -160 -0.7333333
v -144 -176 -0.7333333
v -144 -160 -0.7333333
v -160 -176 -0.7333333
v -160 -160 -0.7333333
v -176 -176 -0.7333333
v -176 -160 -0.7333333
v -192 -176 -0.7333333
v -192 -160 -0.7333333
v -208 -176 -0.7333333
v -208 -160 -0.7333333
v -224 -176 -0.7333333
v -224 -160 -0.7333333
v -240 -176 -0.7333333
v -240 -160 -0.7333333
v -80 -192 -0.8
v -96 -192 -0.8
v -96 -176 -0.8
v -80 -176 -0.8
v -112 -192 -0.8
v -112 -176 -0.8
v -128 -192 -0.8
v -128 -176 -0.8
v -144 -192 -0.8
v -144 -176 -0.8
v -160 -192 -0.8
v -160 -176 -0.8
v -176 -192 -0.8
v -176 -176 -0.8
v -192 -192 -0.8
v -192 -176 -0.8
v -208 -192 -0.8
v -208 -176 -0.8
v -224 -192 -0.8
v -224 -176 -0.8
v -240 -192 -0.8
v -240 -176 -0.8

# Texture cooridinates (Count = 8)
vt 0.8751221 0.7813721
vt 0.9373779 0.7813721
vt 0.9373779 0.8123779
vt 0.8751221 0.8123779
vt 0.06262207 0.9376221
vt 0.1248779 0.9376221
vt 0.1248779 0.9686279
vt 0.06262207 0.9686279

# Normal
vn 0 0 -1

# Groups (Count = 1)

g mesh_0001
f 1/1/1 2/2/1 3/3/1 4/4/1
f 2/1/1 5/2/1 6/3/1 3/4/1
f 5/1/1 7/2/1 8/3/1 6/4/1
f 7/1/1 9/2/1 10/3/1 8/4/1
f 9/1/1 11/2/1 12/3/1 10/4/1
f 11/1/1 13/2/1 14/3/1 12/4/1
f 13/1/1 15/2/1 16/3/1 14/4/1
f 15/1/1 17/2/1 18/3/1 16/4/1
f 17/1/1 19/2/1 20/3/1 18/4/1
f 19/1/1 21/2/1 22/3/1 20/4/1
f 23/1/1 24/2/1 25/3/1 26/4/1
f 24/5/1 27/6/1 28/7/1 25/8/1
f 27/5/1 29/6/1 30/7/1 28/8/1
f 29/5/1 31/6/1 32/7/1 30/8/1
f 31/5/1 33/6/1 34/7/1 32/8/1
f 33/5/1 35/6/1 36/7/1 34/8/1
f 35/5/1 37/6/1 38/7/1 36/8/1
f 37/5/1 39/6/1 40/7/1 38/8/1
f 39/5/1 41/6/1 42/7/1 40/8/1
f 41/1/1 43/2/1 44/3/1 42/4/1
f 45/1/1 46/2/1 47/3/1 48/4/1
f 46/5/1 49/6/1 50/7/1 47/8/1
f 49/5/1 51/6/1 52/7/1 50/8/1
f 51/5/1 53/6/1 54/7/1 52/8/1
f 53/5/1 55/6/1 56/7/1 54/8/1
f 55/5/1 57/6/1 58/7/1 56/8/1
f 57/5/1 59/6/1 60/7/1 58/8/1
f 59/5/1 61/6/1 62/7/1 60/8/1
f 61/5/1 63/6/1 64/7/1 62/8/1
f 63/1/1 65/2/1 66/3/1 64/4/1
f 67/1/1 68/2/1 69/3/1 70/4/1
f 68/5/1 71/6/1 72/7/1 69/8/1
f 71/5/1 73/6/1 74/7/1 72/8/1
f 73/1/1 75/2/1 76/3/1 74/4/1
f 75/1/1 77/2/1 78/3/1 76/4/1
f 77/1/1 79/2/1 80/3/1 78/4/1
f 79/1/1 81/2/1 82/3/1 80/4/1
f 81/5/1 83/6/1 84/7/1 82/8/1
f 83/5/1 85/6/1 86/7/1 84/8/1
f 85/1/1 87/2/1 88/3/1 86/4/1
f 89/1/1 90/2/1 91/3/1 92/4/1
f 90/5/1 93/6/1 94/7/1 91/8/1
f 93/5/1 95/6/1 96/7/1 94/8/1
f 95/1/1 97/2/1 98/3/1 96/4/1
f 99/1/1 100/2/1 101/3/1 102/4/1
f 100/5/1 103/6/1 104/7/1 101/8/1
f 103/5/1 105/6/1 106/7/1 104/8/1
f 105/1/1 107/2/1 108/3/1 106/4/1
f 109/1/1 110/2/1 111/3/1 112/4/1
f 110/5/1 113/6/1 114/7/1 111/8/1
f 113/5/1 115/6/1 116/7/1 114/8/1
f 115/1/1 117/2/1 118/3/1 116/4/1
f 117/1/1 119/2/1 120/3/1 118/4/1
f 119/1/1 121/2/1 122/3/1 120/4/1
f 121/1/1 123/2/1 124/3/1 122/4/1
f 123/5/1 125/6/1 126/7/1 124/8/1
f 125/5/1 127/6/1 128/7/1 126/8/1
f 127/1/1 129/2/1 130/3/1 128/4/1
f 131/1/1 132/2/1 133/3/1 134/4/1
f 132/5/1 135/6/1 136/7/1 133/8/1
f 135/5/1 137/6/1 138/7/1 136/8/1
f 137/5/1 139/6/1 140/7/1 138/8/1
f 139/5/1 141/6/1 142/7/1 140/8/1
f 141/5/1 143/6/1 144/7/1 142/8/1
f 143/5/1 145/6/1 146/7/1 144/8/1
f 145/5/1 147/6/1 148/7/1 146/8/1
f 147/5/1 149/6/1 150/7/1 148/8/1
f 149/1/1 151/2/1 152/3/1 150/4/1
f 153/1/1 154/2/1 155/3/1 156/4/1
f 154/5/1 157/6/1 158/7/1 155/8/1
f 157/5/1 159/6/1 160/7/1 158/8/1
f 159/5/1 161/6/1 162/7/1 160/8/1
f 161/5/1 163/6/1 164/7/1 162/8/1
f 163/5/1 165/6/1 166/7/1 164/8/1
f 165/5/1 167/6/1 168/7/1 166/8/1
f 167/5/1 169/6/1 170/7/1 168/8/1
f 169/5/1 171/6/1 172/7/1 170/8/1
f 171/1/1 173/2/1 174/3/1 172/4/1
f 175/1/1 176/2/1 177/3/1 178/4/1
f 176/1/1 179/2/1 180/3/1 177/4/1
f 179/1/1 181/2/1 182/3/1 180/4/1
f 181/1/1 183/2/1 184/3/1 182/4/1
f 183/1/1 185/2/1 186/3/1 184/4/1
f 185/1/1 187/2/1 188/3/1 186/4/1
f 187/1/1 189/2/1 190/3/1 188/4/1
f 189/1/1 191/2/1 192/3/1 190/4/1
f 191/1/1 193/2/1 194/3/1 192/4/1
f 193/1/1 195/2/1 196/3/1 194/4/1

