# Wavefront OBJ file automatically generated by Tiled2Unity

# Vertices (Count = 145)
v 0 -3 0
v -1 -3 0
v -1 -2 0
v 0 -2 0
v -2 -3 0
v -2 -2 0
v -3 -3 0
v -3 -2 0
v -4 -3 0
v -4 -2 0
v -5 -3 0
v -5 -2 0
v -6 -3 0
v -6 -2 0
v -7 -3 0
v -7 -2 0
v -8 -3 0
v -8 -2 0
v -9 -3 0
v -9 -2 0
v -10 -3 0
v -10 -2 0
v 0 -4 0
v -1 -4 0
v -2 -4 0
v -3 -4 0
v -4 -4 0
v -5 -4 0
v -6 -4 0
v -7 -4 0
v -8 -4 0
v -9 -4 0
v -10 -4 0
v 0 -5 0
v -1 -5 0
v -2 -5 0
v -3 -5 0
v -4 -5 0
v -5 -5 0
v -6 -5 0
v -7 -5 0
v -8 -5 0
v -9 -5 0
v -10 -5 0
v 0 -6 0
v -1 -6 0
v -2 -6 0
v -3 -6 0
v -4 -6 0
v -5 -6 0
v -6 -6 0
v -7 -6 0
v -8 -6 0
v -9 -6 0
v -10 -6 0
v 0 -7 0
v -1 -7 0
v -2 -7 0
v -3 -7 0
v -4 -7 0
v -6 -7 0
v -7 -7 0
v -8 -7 0
v -9 -7 0
v -10 -7 0
v 0 -8 0
v -1 -8 0
v -2 -8 0
v -3 -8 0
v -4 -8 0
v -5 -8 0
v -5 -7 0
v -6 -8 0
v -7 -8 0
v -8 -8 0
v -9 -8 0
v -10 -8 0
v 0 -9 0
v -1 -9 0
v -2 -9 0
v -3 -9 0
v -4 -9 0
v -5 -9 0
v -6 -9 0
v -7 -9 0
v -8 -9 0
v -9 -9 0
v -10 -9 0
v 0 -10 0
v -1 -10 0
v -2 -10 0
v -3 -10 0
v -4 -10 0
v -5 -10 0
v -6 -10 0
v -7 -10 0
v -8 -10 0
v -9 -10 0
v -10 -10 0
v 0 -11 0
v -1 -11 0
v -2 -11 0
v -3 -11 0
v -4 -11 0
v -5 -11 0
v -6 -11 0
v -7 -11 0
v -8 -11 0
v -9 -11 0
v -10 -11 0
v -3 -12 0
v -4 -12 0
v -5 -12 0
v -6 -12 0
v -7 -12 0
v -2 -13 0
v -3 -13 0
v -2 -12 0
v -4 -13 0
v -5 -13 0
v -6 -13 0
v -7 -13 0
v -8 -13 0
v -8 -12 0
v -2 -14 0
v -3 -14 0
v -4 -14 0
v -5 -14 0
v -6 -14 0
v -7 -14 0
v -8 -14 0
v -2 -15 0
v -3 -15 0
v -4 -15 0
v -5 -15 0
v -6 -15 0
v -7 -15 0
v -8 -15 0
v -2 -16 0
v -3 -16 0
v -4 -16 0
v -5 -16 0
v -6 -16 0
v -7 -16 0
v -8 -16 0

# Texture cooridinates (Count = 16)
vt 0.8751221 0.7813721
vt 0.9373779 0.7813721
vt 0.9373779 0.8123779
vt 0.8751221 0.8123779
vt 0.06262207 0.9376221
vt 0.1248779 0.9376221
vt 0.1248779 0.9686279
vt 0.06262207 0.9686279
vt 0.6876221 0.7813721
vt 0.7498779 0.7813721
vt 0.7498779 0.8123779
vt 0.6876221 0.8123779
vt 0.6251221 0.9063721
vt 0.6873779 0.9063721
vt 0.6873779 0.9373779
vt 0.6251221 0.9373779

# Normal
vn 0 0 -1

# Groups (Count = 1)

g mesh_0001
f 1/1/1 2/2/1 3/3/1 4/4/1
f 2/1/1 5/2/1 6/3/1 3/4/1
f 5/1/1 7/2/1 8/3/1 6/4/1
f 7/1/1 9/2/1 10/3/1 8/4/1
f 9/1/1 11/2/1 12/3/1 10/4/1
f 11/1/1 13/2/1 14/3/1 12/4/1
f 13/1/1 15/2/1 16/3/1 14/4/1
f 15/1/1 17/2/1 18/3/1 16/4/1
f 17/1/1 19/2/1 20/3/1 18/4/1
f 19/1/1 21/2/1 22/3/1 20/4/1
f 23/1/1 24/2/1 2/3/1 1/4/1
f 24/5/1 25/6/1 5/7/1 2/8/1
f 25/5/1 26/6/1 7/7/1 5/8/1
f 26/5/1 27/6/1 9/7/1 7/8/1
f 27/5/1 28/6/1 11/7/1 9/8/1
f 28/5/1 29/6/1 13/7/1 11/8/1
f 29/5/1 30/6/1 15/7/1 13/8/1
f 30/5/1 31/6/1 17/7/1 15/8/1
f 31/5/1 32/6/1 19/7/1 17/8/1
f 32/1/1 33/2/1 21/3/1 19/4/1
f 34/1/1 35/2/1 24/3/1 23/4/1
f 35/5/1 36/6/1 25/7/1 24/8/1
f 36/5/1 37/6/1 26/7/1 25/8/1
f 37/5/1 38/6/1 27/7/1 26/8/1
f 38/5/1 39/6/1 28/7/1 27/8/1
f 39/5/1 40/6/1 29/7/1 28/8/1
f 40/5/1 41/6/1 30/7/1 29/8/1
f 41/5/1 42/6/1 31/7/1 30/8/1
f 42/5/1 43/6/1 32/7/1 31/8/1
f 43/1/1 44/2/1 33/3/1 32/4/1
f 45/1/1 46/2/1 35/3/1 34/4/1
f 46/5/1 47/6/1 36/7/1 35/8/1
f 47/5/1 48/6/1 37/7/1 36/8/1
f 48/1/1 49/2/1 38/3/1 37/4/1
f 49/1/1 50/2/1 39/3/1 38/4/1
f 50/1/1 51/2/1 40/3/1 39/4/1
f 51/1/1 52/2/1 41/3/1 40/4/1
f 52/5/1 53/6/1 42/7/1 41/8/1
f 53/5/1 54/6/1 43/7/1 42/8/1
f 54/1/1 55/2/1 44/3/1 43/4/1
f 56/1/1 57/2/1 46/3/1 45/4/1
f 57/5/1 58/6/1 47/7/1 46/8/1
f 58/5/1 59/6/1 48/7/1 47/8/1
f 59/1/1 60/2/1 49/3/1 48/4/1
f 61/1/1 62/2/1 52/3/1 51/4/1
f 62/5/1 63/6/1 53/7/1 52/8/1
f 63/5/1 64/6/1 54/7/1 53/8/1
f 64/1/1 65/2/1 55/3/1 54/4/1
f 66/1/1 67/2/1 57/3/1 56/4/1
f 67/5/1 68/6/1 58/7/1 57/8/1
f 68/5/1 69/6/1 59/7/1 58/8/1
f 69/1/1 70/2/1 60/3/1 59/4/1
f 70/1/1 71/2/1 72/3/1 60/4/1
f 71/1/1 73/2/1 61/3/1 72/4/1
f 73/1/1 74/2/1 62/3/1 61/4/1
f 74/5/1 75/6/1 63/7/1 62/8/1
f 75/5/1 76/6/1 64/7/1 63/8/1
f 76/1/1 77/2/1 65/3/1 64/4/1
f 78/1/1 79/2/1 67/3/1 66/4/1
f 79/5/1 80/6/1 68/7/1 67/8/1
f 80/5/1 81/6/1 69/7/1 68/8/1
f 81/5/1 82/6/1 70/7/1 69/8/1
f 82/5/1 83/6/1 71/7/1 70/8/1
f 83/5/1 84/6/1 73/7/1 71/8/1
f 84/5/1 85/6/1 74/7/1 73/8/1
f 85/5/1 86/6/1 75/7/1 74/8/1
f 86/5/1 87/6/1 76/7/1 75/8/1
f 87/1/1 88/2/1 77/3/1 76/4/1
f 89/1/1 90/2/1 79/3/1 78/4/1
f 90/5/1 91/6/1 80/7/1 79/8/1
f 91/5/1 92/6/1 81/7/1 80/8/1
f 92/5/1 93/6/1 82/7/1 81/8/1
f 93/5/1 94/6/1 83/7/1 82/8/1
f 94/5/1 95/6/1 84/7/1 83/8/1
f 95/5/1 96/6/1 85/7/1 84/8/1
f 96/5/1 97/6/1 86/7/1 85/8/1
f 97/5/1 98/6/1 87/7/1 86/8/1
f 98/1/1 99/2/1 88/3/1 87/4/1
f 100/1/1 101/2/1 90/3/1 89/4/1
f 101/1/1 102/2/1 91/3/1 90/4/1
f 102/1/1 103/2/1 92/3/1 91/4/1
f 103/9/1 104/10/1 93/11/1 92/12/1
f 104/5/1 105/6/1 94/7/1 93/8/1
f 105/5/1 106/6/1 95/7/1 94/8/1
f 106/9/1 107/10/1 96/11/1 95/12/1
f 107/1/1 108/2/1 97/3/1 96/4/1
f 108/1/1 109/2/1 98/3/1 97/4/1
f 109/1/1 110/2/1 99/3/1 98/4/1
f 111/9/1 112/10/1 104/11/1 103/12/1
f 112/13/1 113/14/1 105/15/1 104/16/1
f 113/13/1 114/14/1 106/15/1 105/16/1
f 114/9/1 115/10/1 107/11/1 106/12/1
f 116/9/1 117/10/1 111/11/1 118/12/1
f 117/9/1 119/10/1 112/11/1 111/12/1
f 119/13/1 120/14/1 113/15/1 112/16/1
f 120/13/1 121/14/1 114/15/1 113/16/1
f 121/9/1 122/10/1 115/11/1 114/12/1
f 122/9/1 123/10/1 124/11/1 115/12/1
f 125/9/1 126/10/1 117/11/1 116/12/1
f 126/13/1 127/14/1 119/15/1 117/16/1
f 127/13/1 128/14/1 120/15/1 119/16/1
f 128/13/1 129/14/1 121/15/1 120/16/1
f 129/13/1 130/14/1 122/15/1 121/16/1
f 130/9/1 131/10/1 123/11/1 122/12/1
f 132/9/1 133/10/1 126/11/1 125/12/1
f 133/13/1 134/14/1 127/15/1 126/16/1
f 134/13/1 135/14/1 128/15/1 127/16/1
f 135/13/1 136/14/1 129/15/1 128/16/1
f 136/13/1 137/14/1 130/15/1 129/16/1
f 137/9/1 138/10/1 131/11/1 130/12/1
f 139/9/1 140/10/1 133/11/1 132/12/1
f 140/9/1 141/10/1 134/11/1 133/12/1
f 141/9/1 142/10/1 135/11/1 134/12/1
f 142/9/1 143/10/1 136/11/1 135/12/1
f 143/9/1 144/10/1 137/11/1 136/12/1
f 144/9/1 145/10/1 138/11/1 137/12/1

