# Wavefront OBJ file automatically generated by Tiled2Unity

# Vertices (Count = 336)
v 0 -1 0
v -1 -1 0
v -1 0 0
v 0 0 0
v -2 -1 0
v -2 0 0
v -3 -1 0
v -3 0 0
v -4 -1 0
v -4 0 0
v -5 -1 0
v -5 0 0
v -6 -1 0
v -6 0 0
v -7 -1 0
v -7 0 0
v -8 -1 0
v -8 0 0
v -9 -1 0
v -9 0 0
v -10 -1 0
v -10 0 0
v -11 -1 0
v -11 0 0
v -12 -1 0
v -12 0 0
v -13 -1 0
v -13 0 0
v -14 -1 0
v -14 0 0
v -15 -1 0
v -15 0 0
v -16 -1 0
v -16 0 0
v -17 -1 0
v -17 0 0
v -18 -1 0
v -18 0 0
v -19 -1 0
v -19 0 0
v -20 -1 0
v -20 0 0
v 0 -2 0
v -1 -2 0
v -2 -2 0
v -3 -2 0
v -4 -2 0
v -5 -2 0
v -6 -2 0
v -7 -2 0
v -8 -2 0
v -9 -2 0
v -10 -2 0
v -11 -2 0
v -12 -2 0
v -13 -2 0
v -14 -2 0
v -15 -2 0
v -16 -2 0
v -17 -2 0
v -18 -2 0
v -19 -2 0
v -20 -2 0
v 0 -3 0
v -1 -3 0
v -2 -3 0
v -3 -3 0
v -4 -3 0
v -5 -3 0
v -6 -3 0
v -7 -3 0
v -8 -3 0
v -9 -3 0
v -10 -3 0
v -11 -3 0
v -12 -3 0
v -13 -3 0
v -14 -3 0
v -15 -3 0
v -16 -3 0
v -17 -3 0
v -18 -3 0
v -19 -3 0
v -20 -3 0
v 0 -4 0
v -1 -4 0
v -2 -4 0
v -3 -4 0
v -4 -4 0
v -5 -4 0
v -6 -4 0
v -7 -4 0
v -8 -4 0
v -9 -4 0
v -10 -4 0
v -11 -4 0
v -12 -4 0
v -13 -4 0
v -14 -4 0
v -15 -4 0
v -16 -4 0
v -17 -4 0
v -18 -4 0
v -19 -4 0
v -20 -4 0
v 0 -5 0
v -1 -5 0
v -2 -5 0
v -3 -5 0
v -4 -5 0
v -5 -5 0
v -6 -5 0
v -7 -5 0
v -8 -5 0
v -9 -5 0
v -10 -5 0
v -11 -5 0
v -12 -5 0
v -13 -5 0
v -14 -5 0
v -15 -5 0
v -16 -5 0
v -17 -5 0
v -18 -5 0
v -19 -5 0
v -20 -5 0
v 0 -6 0
v -1 -6 0
v -2 -6 0
v -3 -6 0
v -4 -6 0
v -5 -6 0
v -6 -6 0
v -7 -6 0
v -8 -6 0
v -9 -6 0
v -10 -6 0
v -11 -6 0
v -12 -6 0
v -13 -6 0
v -14 -6 0
v -15 -6 0
v -16 -6 0
v -17 -6 0
v -18 -6 0
v -19 -6 0
v -20 -6 0
v 0 -7 0
v -1 -7 0
v -2 -7 0
v -3 -7 0
v -4 -7 0
v -5 -7 0
v -6 -7 0
v -7 -7 0
v -8 -7 0
v -9 -7 0
v -10 -7 0
v -11 -7 0
v -12 -7 0
v -13 -7 0
v -14 -7 0
v -15 -7 0
v -16 -7 0
v -17 -7 0
v -18 -7 0
v -19 -7 0
v -20 -7 0
v 0 -8 0
v -1 -8 0
v -2 -8 0
v -3 -8 0
v -4 -8 0
v -5 -8 0
v -8 -8 0
v -9 -8 0
v -10 -8 0
v -11 -8 0
v -12 -8 0
v -13 -8 0
v -14 -8 0
v -15 -8 0
v -16 -8 0
v -17 -8 0
v -18 -8 0
v -19 -8 0
v -20 -8 0
v 0 -9 0
v -1 -9 0
v -2 -9 0
v -3 -9 0
v -4 -9 0
v -5 -9 0
v -8 -9 0
v -9 -9 0
v -10 -9 0
v -11 -9 0
v -12 -9 0
v -13 -9 0
v -14 -9 0
v -15 -9 0
v -16 -9 0
v -17 -9 0
v -18 -9 0
v -19 -9 0
v -20 -9 0
v 0 -10 0
v -1 -10 0
v -2 -10 0
v -3 -10 0
v -4 -10 0
v -5 -10 0
v -6 -10 0
v -6 -9 0
v -7 -10 0
v -7 -9 0
v -8 -10 0
v -9 -10 0
v -10 -10 0
v -11 -10 0
v -12 -10 0
v -13 -10 0
v -14 -10 0
v -15 -10 0
v -16 -10 0
v -17 -10 0
v -18 -10 0
v -19 -10 0
v -20 -10 0
v 0 -11 0
v -1 -11 0
v -2 -11 0
v -3 -11 0
v -4 -11 0
v -5 -11 0
v -6 -11 0
v -7 -11 0
v -8 -11 0
v -9 -11 0
v -10 -11 0
v -11 -11 0
v -12 -11 0
v -13 -11 0
v -14 -11 0
v -15 -11 0
v -16 -11 0
v -17 -11 0
v -18 -11 0
v -19 -11 0
v -20 -11 0
v 0 -12 0
v -1 -12 0
v -2 -12 0
v -3 -12 0
v -4 -12 0
v -5 -12 0
v -6 -12 0
v -7 -12 0
v -8 -12 0
v -9 -12 0
v -10 -12 0
v -11 -12 0
v -12 -12 0
v -13 -12 0
v -14 -12 0
v -15 -12 0
v -16 -12 0
v -17 -12 0
v -19 -12 0
v -20 -12 0
v 0 -13 0
v -1 -13 0
v -2 -13 0
v -3 -13 0
v -4 -13 0
v -5 -13 0
v -6 -13 0
v -7 -13 0
v -8 -13 0
v -9 -13 0
v -10 -13 0
v -11 -13 0
v -12 -13 0
v -13 -13 0
v -14 -13 0
v -15 -13 0
v -16 -13 0
v -17 -13 0
v -19 -13 0
v -20 -13 0
v 0 -14 0
v -1 -14 0
v -2 -14 0
v -3 -14 0
v -4 -14 0
v -5 -14 0
v -6 -14 0
v -7 -14 0
v -8 -14 0
v -9 -14 0
v -10 -14 0
v -11 -14 0
v -12 -14 0
v -13 -14 0
v -14 -14 0
v -15 -14 0
v -16 -14 0
v -17 -14 0
v -18 -14 0
v -18 -13 0
v -19 -14 0
v -20 -14 0
v 0 -15 0
v -1 -15 0
v -2 -15 0
v -3 -15 0
v -4 -15 0
v -5 -15 0
v -6 -15 0
v -7 -15 0
v -8 -15 0
v -9 -15 0
v -10 -15 0
v -11 -15 0
v -12 -15 0
v -13 -15 0
v -14 -15 0
v -15 -15 0
v -16 -15 0
v -17 -15 0
v -18 -15 0
v -19 -15 0
v -20 -15 0
v -6 -8 0
v -7 -8 0
v -18 -12 0

# Texture cooridinates (Count = 96)
vt 0.4286935 0.960122
vt 0.5713065 0.960122
vt 0.5713065 0.9998779
vt 0.4286935 0.9998779
vt 0.0001220703 0.960122
vt 0.1427351 0.960122
vt 0.1427351 0.9998779
vt 0.0001220703 0.9998779
vt 0.1429792 0.960122
vt 0.2855922 0.960122
vt 0.2855922 0.9998779
vt 0.1429792 0.9998779
vt 0.2858364 0.960122
vt 0.4284494 0.960122
vt 0.4284494 0.9998779
vt 0.2858364 0.9998779
vt 0.0001220703 0.9201221
vt 0.1427351 0.9201221
vt 0.1427351 0.9598779
vt 0.0001220703 0.9598779
vt 0.8572649 0.7601221
vt 0.9998779 0.7601221
vt 0.9998779 0.7998779
vt 0.8572649 0.7998779
vt 0.8572649 0.7201221
vt 0.9998779 0.7201221
vt 0.9998779 0.7598779
vt 0.8572649 0.7598779
vt 0.5715507 0.8401221
vt 0.7141637 0.8401221
vt 0.7141637 0.8798779
vt 0.5715507 0.8798779
vt 0.5715507 0.8001221
vt 0.7141637 0.8001221
vt 0.7141637 0.839878
vt 0.5715507 0.839878
vt 0.4286935 0.6401221
vt 0.5713065 0.6401221
vt 0.5713065 0.6798779
vt 0.4286935 0.6798779
vt 0.5715507 0.6401221
vt 0.7141637 0.6401221
vt 0.7141637 0.6798779
vt 0.5715507 0.6798779
vt 0.7144078 0.6401221
vt 0.8570208 0.6401221
vt 0.8570208 0.6798779
vt 0.7144078 0.6798779
vt 0.8572649 0.6401221
vt 0.9998779 0.6401221
vt 0.9998779 0.6798779
vt 0.8572649 0.6798779
vt 0.2858364 0.04012209
vt 0.4284494 0.04012209
vt 0.4284494 0.07987791
vt 0.2858364 0.07987791
vt 0.7144078 0.04012209
vt 0.8570208 0.04012209
vt 0.8570208 0.07987791
vt 0.7144078 0.07987791
vt 0.4286935 0.0001220703
vt 0.5713065 0.0001220703
vt 0.5713065 0.03987795
vt 0.4286935 0.03987795
vt 0.4286935 0.04012209
vt 0.5713065 0.04012209
vt 0.5713065 0.07987791
vt 0.4286935 0.07987791
vt 0.5715507 0.04012209
vt 0.7141637 0.04012209
vt 0.7141637 0.07987791
vt 0.5715507 0.07987791
vt 0.5715507 0.0001220703
vt 0.7141637 0.0001220703
vt 0.7141637 0.03987795
vt 0.5715507 0.03987795
vt 0.7144078 0.0001220703
vt 0.8570208 0.0001220703
vt 0.8570208 0.03987795
vt 0.7144078 0.03987795
vt 0.8572649 0.0001220703
vt 0.9998779 0.0001220703
vt 0.9998779 0.03987795
vt 0.8572649 0.03987795
vt 0.7778999 0.6667887
vt 0.8887668 0.6667887
vt 0.8887668 0.7221001
vt 0.7778999 0.7221001
vt 0.6667888 0.6667887
vt 0.7776557 0.6667887
vt 0.7776557 0.7221001
vt 0.6667888 0.7221001
vt 0.7778999 0.7223443
vt 0.8887668 0.7223443
vt 0.8887668 0.7776557
vt 0.7778999 0.7776557

# Normal
vn 0 0 -1

# Groups (Count = 3)

g mesh_0001
f 1/1/1 2/2/1 3/3/1 4/4/1
f 2/1/1 5/2/1 6/3/1 3/4/1
f 5/1/1 7/2/1 8/3/1 6/4/1
f 7/1/1 9/2/1 10/3/1 8/4/1
f 9/1/1 11/2/1 12/3/1 10/4/1
f 11/1/1 13/2/1 14/3/1 12/4/1
f 13/1/1 15/2/1 16/3/1 14/4/1
f 15/1/1 17/2/1 18/3/1 16/4/1
f 17/1/1 19/2/1 20/3/1 18/4/1
f 19/1/1 21/2/1 22/3/1 20/4/1
f 21/1/1 23/2/1 24/3/1 22/4/1
f 23/1/1 25/2/1 26/3/1 24/4/1
f 25/1/1 27/2/1 28/3/1 26/4/1
f 27/1/1 29/2/1 30/3/1 28/4/1
f 29/1/1 31/2/1 32/3/1 30/4/1
f 31/1/1 33/2/1 34/3/1 32/4/1
f 33/1/1 35/2/1 36/3/1 34/4/1
f 35/1/1 37/2/1 38/3/1 36/4/1
f 37/1/1 39/2/1 40/3/1 38/4/1
f 39/1/1 41/2/1 42/3/1 40/4/1
f 43/1/1 44/2/1 2/3/1 1/4/1
f 44/5/1 45/6/1 5/7/1 2/8/1
f 45/5/1 46/6/1 7/7/1 5/8/1
f 46/5/1 47/6/1 9/7/1 7/8/1
f 47/5/1 48/6/1 11/7/1 9/8/1
f 48/5/1 49/6/1 13/7/1 11/8/1
f 49/5/1 50/6/1 15/7/1 13/8/1
f 50/5/1 51/6/1 17/7/1 15/8/1
f 51/5/1 52/6/1 19/7/1 17/8/1
f 52/5/1 53/6/1 21/7/1 19/8/1
f 53/5/1 54/6/1 23/7/1 21/8/1
f 54/5/1 55/6/1 25/7/1 23/8/1
f 55/5/1 56/6/1 27/7/1 25/8/1
f 56/5/1 57/6/1 29/7/1 27/8/1
f 57/5/1 58/6/1 31/7/1 29/8/1
f 58/5/1 59/6/1 33/7/1 31/8/1
f 59/5/1 60/6/1 35/7/1 33/8/1
f 60/5/1 61/6/1 37/7/1 35/8/1
f 61/5/1 62/6/1 39/7/1 37/8/1
f 62/1/1 63/2/1 41/3/1 39/4/1
f 64/1/1 65/2/1 44/3/1 43/4/1
f 65/5/1 66/6/1 45/7/1 44/8/1
f 66/5/1 67/6/1 46/7/1 45/8/1
f 67/5/1 68/6/1 47/7/1 46/8/1
f 68/9/1 69/10/1 48/11/1 47/12/1
f 69/9/1 70/10/1 49/11/1 48/12/1
f 70/9/1 71/10/1 50/11/1 49/12/1
f 71/9/1 72/10/1 51/11/1 50/12/1
f 72/5/1 73/6/1 52/7/1 51/8/1
f 73/13/1 74/14/1 53/15/1 52/16/1
f 74/13/1 75/14/1 54/15/1 53/16/1
f 75/13/1 76/14/1 55/15/1 54/16/1
f 76/13/1 77/14/1 56/15/1 55/16/1
f 77/5/1 78/6/1 57/7/1 56/8/1
f 78/17/1 79/18/1 58/19/1 57/20/1
f 79/17/1 80/18/1 59/19/1 58/20/1
f 80/17/1 81/18/1 60/19/1 59/20/1
f 81/17/1 82/18/1 61/19/1 60/20/1
f 82/5/1 83/6/1 62/7/1 61/8/1
f 83/1/1 84/2/1 63/3/1 62/4/1
f 85/1/1 86/2/1 65/3/1 64/4/1
f 86/5/1 87/6/1 66/7/1 65/8/1
f 87/5/1 88/6/1 67/7/1 66/8/1
f 88/5/1 89/6/1 68/7/1 67/8/1
f 89/9/1 90/10/1 69/11/1 68/12/1
f 90/9/1 91/10/1 70/11/1 69/12/1
f 91/9/1 92/10/1 71/11/1 70/12/1
f 92/9/1 93/10/1 72/11/1 71/12/1
f 93/5/1 94/6/1 73/7/1 72/8/1
f 94/13/1 95/14/1 74/15/1 73/16/1
f 95/13/1 96/14/1 75/15/1 74/16/1
f 96/13/1 97/14/1 76/15/1 75/16/1
f 97/13/1 98/14/1 77/15/1 76/16/1
f 98/5/1 99/6/1 78/7/1 77/8/1
f 99/17/1 100/18/1 79/19/1 78/20/1
f 100/17/1 101/18/1 80/19/1 79/20/1
f 101/17/1 102/18/1 81/19/1 80/20/1
f 102/17/1 103/18/1 82/19/1 81/20/1
f 103/5/1 104/6/1 83/7/1 82/8/1
f 104/1/1 105/2/1 84/3/1 83/4/1
f 106/1/1 107/2/1 86/3/1 85/4/1
f 107/5/1 108/6/1 87/7/1 86/8/1
f 108/5/1 109/6/1 88/7/1 87/8/1
f 109/5/1 110/6/1 89/7/1 88/8/1
f 110/9/1 111/10/1 90/11/1 89/12/1
f 111/9/1 112/10/1 91/11/1 90/12/1
f 112/9/1 113/10/1 92/11/1 91/12/1
f 113/9/1 114/10/1 93/11/1 92/12/1
f 114/5/1 115/6/1 94/7/1 93/8/1
f 115/13/1 116/14/1 95/15/1 94/16/1
f 116/13/1 117/14/1 96/15/1 95/16/1
f 117/13/1 118/14/1 97/15/1 96/16/1
f 118/13/1 119/14/1 98/15/1 97/16/1
f 119/5/1 120/6/1 99/7/1 98/8/1
f 120/17/1 121/18/1 100/19/1 99/20/1
f 121/17/1 122/18/1 101/19/1 100/20/1
f 122/17/1 123/18/1 102/19/1 101/20/1
f 123/17/1 124/18/1 103/19/1 102/20/1
f 124/5/1 125/6/1 104/7/1 103/8/1
f 125/1/1 126/2/1 105/3/1 104/4/1
f 127/1/1 128/2/1 107/3/1 106/4/1
f 128/5/1 129/6/1 108/7/1 107/8/1
f 129/5/1 130/6/1 109/7/1 108/8/1
f 130/5/1 131/6/1 110/7/1 109/8/1
f 131/5/1 132/6/1 111/7/1 110/8/1
f 132/5/1 133/6/1 112/7/1 111/8/1
f 133/5/1 134/6/1 113/7/1 112/8/1
f 134/5/1 135/6/1 114/7/1 113/8/1
f 135/5/1 136/6/1 115/7/1 114/8/1
f 136/5/1 137/6/1 116/7/1 115/8/1
f 137/5/1 138/6/1 117/7/1 116/8/1
f 138/5/1 139/6/1 118/7/1 117/8/1
f 139/5/1 140/6/1 119/7/1 118/8/1
f 140/5/1 141/6/1 120/7/1 119/8/1
f 141/5/1 142/6/1 121/7/1 120/8/1
f 142/5/1 143/6/1 122/7/1 121/8/1
f 143/5/1 144/6/1 123/7/1 122/8/1
f 144/5/1 145/6/1 124/7/1 123/8/1
f 145/5/1 146/6/1 125/7/1 124/8/1
f 146/1/1 147/2/1 126/3/1 125/4/1
f 148/1/1 149/2/1 128/3/1 127/4/1
f 149/5/1 150/6/1 129/7/1 128/8/1
f 150/5/1 151/6/1 130/7/1 129/8/1
f 151/5/1 152/6/1 131/7/1 130/8/1
f 152/5/1 153/6/1 132/7/1 131/8/1
f 153/5/1 154/6/1 133/7/1 132/8/1
f 154/5/1 155/6/1 134/7/1 133/8/1
f 155/5/1 156/6/1 135/7/1 134/8/1
f 156/5/1 157/6/1 136/7/1 135/8/1
f 157/5/1 158/6/1 137/7/1 136/8/1
f 158/5/1 159/6/1 138/7/1 137/8/1
f 159/5/1 160/6/1 139/7/1 138/8/1
f 160/5/1 161/6/1 140/7/1 139/8/1
f 161/5/1 162/6/1 141/7/1 140/8/1
f 162/5/1 163/6/1 142/7/1 141/8/1
f 163/5/1 164/6/1 143/7/1 142/8/1
f 164/5/1 165/6/1 144/7/1 143/8/1
f 165/5/1 166/6/1 145/7/1 144/8/1
f 166/5/1 167/6/1 146/7/1 145/8/1
f 167/21/1 168/22/1 147/23/1 146/24/1
f 169/1/1 170/2/1 149/3/1 148/4/1
f 170/5/1 171/6/1 150/7/1 149/8/1
f 171/5/1 172/6/1 151/7/1 150/8/1
f 172/5/1 173/6/1 152/7/1 151/8/1
f 173/5/1 174/6/1 153/7/1 152/8/1
f 175/5/1 176/6/1 157/7/1 156/8/1
f 176/5/1 177/6/1 158/7/1 157/8/1
f 177/5/1 178/6/1 159/7/1 158/8/1
f 178/5/1 179/6/1 160/7/1 159/8/1
f 179/5/1 180/6/1 161/7/1 160/8/1
f 180/5/1 181/6/1 162/7/1 161/8/1
f 181/5/1 182/6/1 163/7/1 162/8/1
f 182/5/1 183/6/1 164/7/1 163/8/1
f 183/5/1 184/6/1 165/7/1 164/8/1
f 184/5/1 185/6/1 166/7/1 165/8/1
f 185/5/1 186/6/1 167/7/1 166/8/1
f 186/25/1 187/26/1 168/27/1 167/28/1
f 188/1/1 189/2/1 170/3/1 169/4/1
f 189/5/1 190/6/1 171/7/1 170/8/1
f 190/5/1 191/6/1 172/7/1 171/8/1
f 191/5/1 192/6/1 173/7/1 172/8/1
f 192/5/1 193/6/1 174/7/1 173/8/1
f 194/5/1 195/6/1 176/7/1 175/8/1
f 195/5/1 196/6/1 177/7/1 176/8/1
f 196/5/1 197/6/1 178/7/1 177/8/1
f 197/5/1 198/6/1 179/7/1 178/8/1
f 198/5/1 199/6/1 180/7/1 179/8/1
f 199/5/1 200/6/1 181/7/1 180/8/1
f 200/5/1 201/6/1 182/7/1 181/8/1
f 201/5/1 202/6/1 183/7/1 182/8/1
f 202/5/1 203/6/1 184/7/1 183/8/1
f 203/5/1 204/6/1 185/7/1 184/8/1
f 204/5/1 205/6/1 186/7/1 185/8/1
f 205/5/1 206/6/1 187/7/1 186/8/1
f 207/1/1 208/2/1 189/3/1 188/4/1
f 208/5/1 209/6/1 190/7/1 189/8/1
f 209/5/1 210/6/1 191/7/1 190/8/1
f 210/5/1 211/6/1 192/7/1 191/8/1
f 211/5/1 212/6/1 193/7/1 192/8/1
f 212/5/1 213/6/1 214/7/1 193/8/1
f 213/5/1 215/6/1 216/7/1 214/8/1
f 215/5/1 217/6/1 194/7/1 216/8/1
f 217/5/1 218/6/1 195/7/1 194/8/1
f 218/5/1 219/6/1 196/7/1 195/8/1
f 219/5/1 220/6/1 197/7/1 196/8/1
f 220/5/1 221/6/1 198/7/1 197/8/1
f 221/5/1 222/6/1 199/7/1 198/8/1
f 222/5/1 223/6/1 200/7/1 199/8/1
f 223/5/1 224/6/1 201/7/1 200/8/1
f 224/5/1 225/6/1 202/7/1 201/8/1
f 225/5/1 226/6/1 203/7/1 202/8/1
f 226/5/1 227/6/1 204/7/1 203/8/1
f 227/5/1 228/6/1 205/7/1 204/8/1
f 228/1/1 229/2/1 206/3/1 205/4/1
f 230/1/1 231/2/1 208/3/1 207/4/1
f 231/5/1 232/6/1 209/7/1 208/8/1
f 232/5/1 233/6/1 210/7/1 209/8/1
f 233/5/1 234/6/1 211/7/1 210/8/1
f 234/5/1 235/6/1 212/7/1 211/8/1
f 235/5/1 236/6/1 213/7/1 212/8/1
f 236/5/1 237/6/1 215/7/1 213/8/1
f 237/5/1 238/6/1 217/7/1 215/8/1
f 238/5/1 239/6/1 218/7/1 217/8/1
f 239/5/1 240/6/1 219/7/1 218/8/1
f 240/1/1 241/2/1 220/3/1 219/4/1
f 241/1/1 242/2/1 221/3/1 220/4/1
f 242/5/1 243/6/1 222/7/1 221/8/1
f 243/1/1 244/2/1 223/3/1 222/4/1
f 244/5/1 245/6/1 224/7/1 223/8/1
f 245/1/1 246/2/1 225/3/1 224/4/1
f 246/1/1 247/2/1 226/3/1 225/4/1
f 247/5/1 248/6/1 227/7/1 226/8/1
f 248/5/1 249/6/1 228/7/1 227/8/1
f 249/1/1 250/2/1 229/3/1 228/4/1
f 251/1/1 252/2/1 231/3/1 230/4/1
f 252/5/1 253/6/1 232/7/1 231/8/1
f 253/5/1 254/6/1 233/7/1 232/8/1
f 254/5/1 255/6/1 234/7/1 233/8/1
f 255/5/1 256/6/1 235/7/1 234/8/1
f 256/5/1 257/6/1 236/7/1 235/8/1
f 257/5/1 258/6/1 237/7/1 236/8/1
f 258/5/1 259/6/1 238/7/1 237/8/1
f 259/5/1 260/6/1 239/7/1 238/8/1
f 260/5/1 261/6/1 240/7/1 239/8/1
f 261/29/1 262/30/1 241/31/1 240/32/1
f 262/29/1 263/30/1 242/31/1 241/32/1
f 264/29/1 265/30/1 244/31/1 243/32/1
f 266/29/1 267/30/1 246/31/1 245/32/1
f 267/29/1 268/30/1 247/31/1 246/32/1
f 269/1/1 270/2/1 250/3/1 249/4/1
f 271/1/1 272/2/1 252/3/1 251/4/1
f 272/5/1 273/6/1 253/7/1 252/8/1
f 273/5/1 274/6/1 254/7/1 253/8/1
f 274/5/1 275/6/1 255/7/1 254/8/1
f 275/5/1 276/6/1 256/7/1 255/8/1
f 276/5/1 277/6/1 257/7/1 256/8/1
f 277/5/1 278/6/1 258/7/1 257/8/1
f 278/5/1 279/6/1 259/7/1 258/8/1
f 279/5/1 280/6/1 260/7/1 259/8/1
f 280/5/1 281/6/1 261/7/1 260/8/1
f 281/33/1 282/34/1 262/35/1 261/36/1
f 282/33/1 283/34/1 263/35/1 262/36/1
f 284/33/1 285/34/1 265/35/1 264/36/1
f 286/33/1 287/34/1 267/35/1 266/36/1
f 287/33/1 288/34/1 268/35/1 267/36/1
f 289/1/1 290/2/1 270/3/1 269/4/1
f 291/1/1 292/2/1 272/3/1 271/4/1
f 292/5/1 293/6/1 273/7/1 272/8/1
f 293/5/1 294/6/1 274/7/1 273/8/1
f 294/5/1 295/6/1 275/7/1 274/8/1
f 295/5/1 296/6/1 276/7/1 275/8/1
f 296/5/1 297/6/1 277/7/1 276/8/1
f 297/5/1 298/6/1 278/7/1 277/8/1
f 298/5/1 299/6/1 279/7/1 278/8/1
f 299/5/1 300/6/1 280/7/1 279/8/1
f 300/5/1 301/6/1 281/7/1 280/8/1
f 301/5/1 302/6/1 282/7/1 281/8/1
f 302/5/1 303/6/1 283/7/1 282/8/1
f 303/5/1 304/6/1 284/7/1 283/8/1
f 304/5/1 305/6/1 285/7/1 284/8/1
f 305/5/1 306/6/1 286/7/1 285/8/1
f 306/5/1 307/6/1 287/7/1 286/8/1
f 307/5/1 308/6/1 288/7/1 287/8/1
f 308/5/1 309/6/1 310/7/1 288/8/1
f 309/5/1 311/6/1 289/7/1 310/8/1
f 311/1/1 312/2/1 290/3/1 289/4/1
f 313/1/1 314/2/1 292/3/1 291/4/1
f 314/1/1 315/2/1 293/3/1 292/4/1
f 315/1/1 316/2/1 294/3/1 293/4/1
f 316/1/1 317/2/1 295/3/1 294/4/1
f 317/1/1 318/2/1 296/3/1 295/4/1
f 318/1/1 319/2/1 297/3/1 296/4/1
f 319/1/1 320/2/1 298/3/1 297/4/1
f 320/1/1 321/2/1 299/3/1 298/4/1
f 321/1/1 322/2/1 300/3/1 299/4/1
f 322/1/1 323/2/1 301/3/1 300/4/1
f 323/1/1 324/2/1 302/3/1 301/4/1
f 324/1/1 325/2/1 303/3/1 302/4/1
f 325/1/1 326/2/1 304/3/1 303/4/1
f 326/1/1 327/2/1 305/3/1 304/4/1
f 327/1/1 328/2/1 306/3/1 305/4/1
f 328/1/1 329/2/1 307/3/1 306/4/1
f 329/1/1 330/2/1 308/3/1 307/4/1
f 330/1/1 331/2/1 309/3/1 308/4/1
f 331/1/1 332/2/1 311/3/1 309/4/1
f 332/1/1 333/2/1 312/3/1 311/4/1

g mesh_0002
f 174/37/1 334/38/1 154/39/1 153/40/1
f 334/37/1 335/38/1 155/39/1 154/40/1
f 335/37/1 175/38/1 156/39/1 155/40/1
f 193/37/1 214/38/1 334/39/1 174/40/1
f 214/37/1 216/38/1 335/39/1 334/40/1
f 216/37/1 194/38/1 175/39/1 335/40/1

g mesh_0003
f 174/41/1 334/42/1 154/43/1 153/44/1
f 334/41/1 335/42/1 155/43/1 154/44/1
f 335/41/1 175/42/1 156/43/1 155/44/1
f 193/41/1 214/42/1 334/43/1 174/44/1
f 214/41/1 216/42/1 335/43/1 334/44/1
f 216/41/1 194/42/1 175/43/1 335/44/1

g mesh_0004
f 174/45/1 334/46/1 154/47/1 153/48/1
f 334/45/1 335/46/1 155/47/1 154/48/1
f 335/45/1 175/46/1 156/47/1 155/48/1
f 193/45/1 214/46/1 334/47/1 174/48/1
f 214/45/1 216/46/1 335/47/1 334/48/1
f 216/45/1 194/46/1 175/47/1 335/48/1

g mesh_0005
f 174/49/1 334/50/1 154/51/1 153/52/1
f 334/49/1 335/50/1 155/51/1 154/52/1
f 335/49/1 175/50/1 156/51/1 155/52/1
f 193/49/1 214/50/1 334/51/1 174/52/1
f 214/49/1 216/50/1 335/51/1 334/52/1
f 216/49/1 194/50/1 175/51/1 335/52/1

g mesh_0006
f 263/53/1 264/54/1 243/55/1 242/56/1
f 265/57/1 266/58/1 245/59/1 244/60/1
f 268/61/1 336/62/1 248/63/1 247/64/1
f 336/61/1 269/62/1 249/63/1 248/64/1
f 283/53/1 284/54/1 264/55/1 263/56/1
f 285/57/1 286/58/1 266/59/1 265/60/1
f 288/61/1 310/62/1 336/63/1 268/64/1
f 310/61/1 289/62/1 269/63/1 336/64/1

g mesh_0007
f 263/65/1 264/66/1 243/67/1 242/68/1
f 265/69/1 266/70/1 245/71/1 244/72/1
f 268/73/1 336/74/1 248/75/1 247/76/1
f 336/73/1 269/74/1 249/75/1 248/76/1
f 283/65/1 284/66/1 264/67/1 263/68/1
f 285/69/1 286/70/1 266/71/1 265/72/1
f 288/73/1 310/74/1 336/75/1 268/76/1
f 310/73/1 289/74/1 269/75/1 336/76/1

g mesh_0008
f 263/69/1 264/70/1 243/71/1 242/72/1
f 265/65/1 266/66/1 245/67/1 244/68/1
f 268/77/1 336/78/1 248/79/1 247/80/1
f 336/77/1 269/78/1 249/79/1 248/80/1
f 283/69/1 284/70/1 264/71/1 263/72/1
f 285/65/1 286/66/1 266/67/1 265/68/1
f 288/77/1 310/78/1 336/79/1 268/80/1
f 310/77/1 289/78/1 269/79/1 336/80/1

g mesh_0009
f 263/57/1 264/58/1 243/59/1 242/60/1
f 265/53/1 266/54/1 245/55/1 244/56/1
f 268/81/1 336/82/1 248/83/1 247/84/1
f 336/81/1 269/82/1 249/83/1 248/84/1
f 283/57/1 284/58/1 264/59/1 263/60/1
f 285/53/1 286/54/1 266/55/1 265/56/1
f 288/81/1 310/82/1 336/83/1 268/84/1
f 310/81/1 289/82/1 269/83/1 336/84/1

g mesh_0010
f 179/85/1 180/86/1 161/87/1 160/88/1
f 181/89/1 182/90/1 163/91/1 162/92/1

g mesh_0011
f 160/93/1 161/94/1 140/95/1 139/96/1

